<?xml version="1.0" encoding="utf-8"?>
<!-- Generator: Adobe Illustrator 16.0.0, SVG Export Plug-In . SVG Version: 6.00 Build 0)  -->
<!DOCTYPE svg PUBLIC "-//W3C//DTD SVG 1.1//EN" "http://www.w3.org/Graphics/SVG/1.1/DTD/svg11.dtd">
<svg version="1.1" id="圖層_1" xmlns="http://www.w3.org/2000/svg" xmlns:xlink="http://www.w3.org/1999/xlink" x="0px" y="0px"
	 width="190px" height="40px" viewBox="0 0 190 40" enable-background="new 0 0 190 40" xml:space="preserve">
<g>
	<g>
		<path fill="#262E3A" d="M31.313,28.485c-0.482,0.854-1.052,1.653-1.701,2.385l0.019,0.018l-0.601,0.604
			c-2.682,2.698-6.251,4.187-10.053,4.187c-3.787,0-7.347-1.474-10.024-4.156C6.276,28.849,4.8,25.282,4.8,21.498
			c0-0.278,0.007-0.563,0.026-0.845c0.001-0.038,0.004-0.077,0.005-0.118l0-0.011c0.003-0.022,0.003-0.047,0.005-0.075l0.002-0.014
			c0.003-0.059,0.008-0.119,0.015-0.175c0.003-0.047,0.008-0.098,0.014-0.149c0.008-0.079,0.015-0.153,0.023-0.23
			c0.005-0.044,0.011-0.092,0.018-0.141c0.006-0.064,0.015-0.134,0.025-0.205c0.006-0.039,0.011-0.074,0.017-0.113
			c0.01-0.066,0.021-0.134,0.032-0.206c0.006-0.037,0.012-0.079,0.021-0.121c0.005-0.036,0.01-0.071,0.018-0.107
			c0.007-0.044,0.017-0.098,0.027-0.146c0.008-0.045,0.019-0.094,0.025-0.143c0.013-0.054,0.024-0.109,0.038-0.164
			c0.08-0.389,0.179-0.778,0.293-1.154l0.003-0.01c0.015-0.051,0.03-0.101,0.046-0.151c0.014-0.042,0.027-0.084,0.042-0.127
			c0.079-0.248,0.169-0.499,0.264-0.741c0.013-0.034,0.027-0.068,0.042-0.104c0.015-0.037,0.031-0.076,0.046-0.115
			c0.019-0.046,0.04-0.098,0.063-0.151c0.015-0.039,0.034-0.083,0.052-0.126l0.009-0.018c0.027-0.06,0.052-0.119,0.078-0.176
			c0.021-0.044,0.039-0.088,0.059-0.132c0.36-0.771,0.792-1.516,1.288-2.216l0.08-0.11c0.058-0.077,0.113-0.152,0.169-0.227
			c0.028-0.035,0.056-0.074,0.085-0.11c0.063-0.08,0.124-0.16,0.188-0.24c0.035-0.044,0.073-0.091,0.113-0.136
			c0.034-0.043,0.073-0.089,0.111-0.134c0.037-0.044,0.077-0.092,0.116-0.134c0.044-0.051,0.087-0.102,0.133-0.154l-1.666-1.664
			c-2.761,3.041-4.277,6.968-4.277,11.094c0,4.418,1.718,8.564,4.84,11.689c3.122,3.122,7.273,4.844,11.687,4.844
			c4.427,0,8.587-1.731,11.709-4.873c0.895-0.895,1.679-1.892,2.342-2.951L31.313,28.485z"/>
		<path fill="#EC661B" d="M10.162,30.315c2.354,2.353,5.484,3.654,8.814,3.654c0.104,0,0.208-0.002,0.312-0.008
			c0.054,0,0.104-0.002,0.154-0.005h0.008c0.077-0.004,0.152-0.004,0.231-0.013c0.06-0.004,0.12-0.004,0.182-0.006
			c0.03-0.006,0.057-0.008,0.083-0.011l0.041-0.003c0.055-0.007,0.113-0.007,0.169-0.013c0.051-0.006,0.097-0.014,0.147-0.017
			c0.034-0.003,0.063-0.006,0.093-0.009l0.062-0.009c0.042-0.006,0.082-0.009,0.123-0.015c0.155-0.021,0.307-0.04,0.453-0.064
			c0.043-0.007,0.084-0.019,0.124-0.021l0.013-0.004c0.034-0.01,0.066-0.012,0.098-0.02l0.016-0.003
			c0.043-0.006,0.085-0.017,0.129-0.023c0.112-0.023,0.222-0.046,0.33-0.068c0.073-0.015,0.146-0.033,0.219-0.054l0.009-0.002
			c0.019-0.004,0.038-0.007,0.057-0.013c0.055-0.015,0.103-0.029,0.153-0.038c0.041-0.014,0.08-0.022,0.12-0.037
			c0.034-0.005,0.066-0.015,0.095-0.023c0.028-0.007,0.052-0.014,0.073-0.023l0.018-0.002c0.03-0.011,0.061-0.021,0.093-0.029
			c0.051-0.014,0.097-0.028,0.142-0.041c0.034-0.012,0.067-0.021,0.1-0.034c0.105-0.032,0.208-0.068,0.312-0.104
			c0.029-0.01,0.057-0.021,0.083-0.031l0.019-0.006c0.037-0.012,0.071-0.023,0.101-0.038c0.052-0.021,0.098-0.034,0.144-0.053
			c0.039-0.017,0.072-0.029,0.105-0.04c0.064-0.026,0.121-0.049,0.179-0.075l0.172-0.072c0.057-0.024,0.109-0.048,0.159-0.071
			c0.032-0.012,0.058-0.027,0.083-0.037l0.025-0.013c0.042-0.02,0.085-0.037,0.128-0.058c0.262-0.128,0.52-0.263,0.771-0.402
			c0.026-0.015,0.052-0.032,0.077-0.043c0.058-0.035,0.115-0.066,0.172-0.105l0.284-0.17c0.126-0.08,0.257-0.169,0.397-0.267
			c0.039-0.025,0.078-0.055,0.117-0.08l0.016-0.015c0.03-0.021,0.059-0.041,0.087-0.063l0.007-0.007
			c0.023-0.013,0.044-0.03,0.064-0.041l0.007-0.012c0.037-0.025,0.071-0.049,0.107-0.075c0.04-0.031,0.078-0.06,0.116-0.085
			c0.025-0.023,0.048-0.043,0.071-0.058l0.027-0.023c0.041-0.029,0.078-0.061,0.117-0.094c0.042-0.029,0.082-0.064,0.121-0.096
			l0.011-0.01c0.075-0.06,0.148-0.121,0.222-0.188c0.023-0.019,0.045-0.039,0.068-0.059l-1.665-1.667
			c-1.827,1.555-4.139,2.407-6.552,2.407c-5.577,0-10.112-4.537-10.112-10.114c0-2.716,1.062-5.268,2.992-7.18
			c0.907-0.896,1.99-1.625,3.162-2.125l-1.768-1.769c-1.125,0.584-2.155,1.335-3.061,2.234c-2.372,2.359-3.677,5.497-3.677,8.839
			C6.512,24.827,7.807,27.961,10.162,30.315z"/>
		<path fill="#EC661B" d="M33.117,18.396c0-4.412-1.72-8.563-4.84-11.684C25.155,3.59,21.004,1.871,16.59,1.871
			c-4.428,0-8.588,1.729-11.711,4.868C3.987,7.633,3.2,8.627,2.538,9.695l1.716,1.715c0.482-0.849,1.052-1.648,1.7-2.384
			L5.937,9.008l0.6-0.602c2.682-2.698,6.251-4.183,10.053-4.183c3.787,0,7.347,1.475,10.022,4.151
			c2.678,2.676,4.155,6.237,4.155,10.021c0,0.283-0.009,0.567-0.027,0.847c-0.001,0.038-0.004,0.079-0.006,0.118
			c-0.003,0.029-0.006,0.056-0.007,0.085l-0.002,0.016c-0.003,0.057-0.008,0.117-0.014,0.175c-0.004,0.048-0.01,0.102-0.014,0.152
			c-0.007,0.076-0.015,0.151-0.022,0.225c-0.006,0.046-0.011,0.097-0.019,0.143c-0.007,0.063-0.016,0.134-0.026,0.204
			c-0.005,0.041-0.01,0.075-0.019,0.116c-0.006,0.064-0.017,0.132-0.029,0.204c-0.006,0.04-0.013,0.081-0.021,0.123
			c-0.005,0.036-0.011,0.069-0.019,0.104c-0.008,0.045-0.016,0.095-0.026,0.148c-0.006,0.043-0.016,0.092-0.027,0.139
			c-0.012,0.057-0.022,0.11-0.036,0.171c-0.082,0.385-0.179,0.774-0.293,1.152c-0.017,0.049-0.033,0.099-0.052,0.157
			c-0.011,0.042-0.025,0.086-0.039,0.13c-0.082,0.247-0.17,0.498-0.264,0.74c-0.014,0.029-0.027,0.066-0.042,0.104
			c-0.015,0.038-0.029,0.071-0.045,0.11c-0.019,0.048-0.041,0.103-0.063,0.15c-0.015,0.043-0.035,0.086-0.053,0.129l-0.008,0.02
			c-0.026,0.057-0.054,0.118-0.08,0.175c-0.019,0.039-0.038,0.089-0.06,0.129c-0.358,0.771-0.791,1.52-1.287,2.219l-0.079,0.111
			c-0.058,0.076-0.112,0.154-0.17,0.229c-0.027,0.035-0.055,0.074-0.084,0.11c-0.064,0.079-0.125,0.161-0.188,0.237
			c-0.037,0.045-0.074,0.089-0.113,0.137c-0.031,0.041-0.066,0.084-0.104,0.127l-0.005,0.006c-0.04,0.046-0.079,0.095-0.118,0.135
			c-0.044,0.053-0.088,0.103-0.133,0.152l1.663,1.668C31.601,26.452,33.117,22.523,33.117,18.396z"/>
		<path fill="#262E3A" d="M20.548,27.704l1.768,1.769c1.126-0.585,2.156-1.335,3.061-2.234c2.371-2.356,3.678-5.5,3.678-8.843
			c0-3.328-1.298-6.458-3.652-8.811c-2.353-2.354-5.483-3.65-8.813-3.65c-0.104,0-0.208,0.001-0.313,0.004
			c-0.053,0.001-0.102,0.002-0.153,0.003h-0.008c-0.078,0.004-0.153,0.008-0.229,0.012c-0.062,0.003-0.121,0.006-0.181,0.011
			c-0.032,0.002-0.059,0.004-0.085,0.006l-0.042,0.004c-0.056,0.003-0.112,0.009-0.167,0.013c-0.051,0.006-0.1,0.01-0.147,0.014
			C15.23,6.007,15.2,6.009,15.17,6.013l-0.049,0.005c-0.006,0-0.011,0.002-0.016,0.002c-0.04,0.005-0.079,0.009-0.122,0.014
			c-0.153,0.021-0.304,0.044-0.451,0.069c-0.042,0.006-0.083,0.012-0.124,0.021l-0.014,0.003c-0.033,0.004-0.063,0.011-0.094,0.016
			l-0.02,0.004c-0.042,0.007-0.083,0.015-0.125,0.024c-0.115,0.021-0.224,0.044-0.333,0.07c-0.074,0.016-0.147,0.036-0.22,0.053
			l-0.009,0.002c-0.019,0.002-0.037,0.009-0.056,0.013c-0.055,0.012-0.104,0.026-0.153,0.038c-0.04,0.012-0.08,0.023-0.12,0.034
			c-0.037,0.009-0.067,0.018-0.097,0.027c-0.03,0.008-0.051,0.015-0.074,0.021l-0.017,0.005c-0.03,0.008-0.061,0.018-0.09,0.026
			c-0.052,0.015-0.097,0.03-0.141,0.044c-0.038,0.012-0.07,0.022-0.103,0.031c-0.104,0.035-0.208,0.07-0.311,0.105
			c-0.029,0.009-0.054,0.02-0.081,0.03l-0.023,0.008c-0.035,0.012-0.066,0.023-0.097,0.035c-0.055,0.021-0.101,0.038-0.146,0.056
			c-0.038,0.015-0.072,0.029-0.106,0.042c-0.064,0.026-0.121,0.05-0.18,0.074l-0.173,0.073c-0.054,0.023-0.107,0.046-0.16,0.071
			c-0.03,0.013-0.055,0.024-0.081,0.036L11.36,7.075c-0.043,0.021-0.086,0.042-0.127,0.062c-0.262,0.123-0.521,0.259-0.771,0.401
			c-0.028,0.015-0.053,0.03-0.079,0.044c-0.054,0.031-0.108,0.064-0.163,0.096l-0.18,0.109c-0.036,0.022-0.075,0.047-0.115,0.071
			C9.799,7.939,9.669,8.025,9.53,8.121C9.495,8.146,9.459,8.172,9.423,8.197L9.401,8.213C9.369,8.235,9.34,8.256,9.311,8.276
			l-0.012,0.01c-0.02,0.015-0.039,0.029-0.06,0.044L9.232,8.335C9.196,8.362,9.161,8.386,9.125,8.413
			c-0.041,0.031-0.077,0.06-0.117,0.089C8.983,8.523,8.959,8.54,8.939,8.557L8.911,8.579c-0.039,0.03-0.08,0.06-0.118,0.094
			c-0.045,0.034-0.085,0.07-0.129,0.105C8.588,8.84,8.514,8.902,8.44,8.967C8.416,8.988,8.396,9.006,8.372,9.026l1.667,1.667
			c1.825-1.556,4.139-2.407,6.551-2.407c5.576,0,10.113,4.535,10.113,10.109c0,2.718-1.065,5.269-2.994,7.183
			C22.804,26.471,21.719,27.202,20.548,27.704z"/>
		<g>
			<g>
				<g>
					<linearGradient id="SVGID_1_" gradientUnits="userSpaceOnUse" x1="12.7056" y1="20.0981" x2="23.543" y2="20.0981">
						<stop  offset="0" style="stop-color:#F5A322"/>
						<stop  offset="0.1117" style="stop-color:#E7892E"/>
						<stop  offset="0.2438" style="stop-color:#DA7034"/>
						<stop  offset="0.3868" style="stop-color:#D05C37"/>
						<stop  offset="0.5439" style="stop-color:#C94E38"/>
						<stop  offset="0.7258" style="stop-color:#C64639"/>
						<stop  offset="0.9904" style="stop-color:#C44339"/>
					</linearGradient>
					<path fill="url(#SVGID_1_)" d="M14.168,12.692l0.232-0.031c0.472-0.116,0.954,0.003,1.45,0.357
						c0.176,0.675,0.199,1.446,0.073,2.309l-0.015,0.778l0.042,0.321l-0.086,0.236c0.033,0.237,0.034,0.53,0.008,0.883
						c0.019,0.324-0.009,0.694-0.088,1.11l0.059,0.441l1.204,0.277l0.848,0.222l0.349-0.047l0.247,0.08l0.82-0.007l0.809,0.004
						c0.256-1.272,0.221-2.704-0.099-4.294l0.07-0.336l-0.086-0.652l-0.145-0.203l-0.406-0.384c0.406-1.867,1.435-2.336,3.088-1.411
						l0.291,2.17l0.043,0.321l0.059,0.439l0.042,0.32c0.032,0.237,0.031,0.533-0.001,0.887l0.044,0.328l0.043,0.322
						c0.032,0.237,0.033,0.531,0.001,0.884l0.044,0.328l-0.059,0.448c0.053,0.258,0.163,0.501,0.334,0.73l0.116,0.87l0.043,0.32
						l-0.296,1.253c-0.127,0.379-0.184,0.829-0.173,1.353L23,23.659l-0.179,0.359l-0.074,0.335l-0.057,0.455l-0.073,0.34
						l-0.189,0.358c-0.084,0.223-0.16,0.529-0.223,0.915l-0.777,1.203c-0.575-0.89-0.916-1.985-1.021-3.285
						c-0.102-0.483-0.332-1.044-0.69-1.679l-0.043-0.321c-0.774,0.025-1.801-0.06-3.083-0.249l-0.238-0.078l-0.364-0.065
						l-0.238-0.079l-0.074,2.107l-0.057,0.455l-0.088,0.227l0.044,0.329l-0.84,2.432l-0.072,0.339
						c-0.215,0.177-0.501,0.362-0.864,0.554l-0.354-0.941l-0.188-0.524c-0.01-0.115-0.063-0.216-0.161-0.315l-0.392-2.044
						c0.135-0.66,0.215-1.519,0.238-2.577l0.017-0.767c-0.039-0.38-0.015-0.791,0.072-1.232c-0.074-0.277-0.074-0.572,0-0.885
						l-0.043-0.321c0.05-0.355,0.066-0.799,0.05-1.331c0.046-0.208,0.045-0.5,0-0.884l0.117-0.902l-0.043-0.322
						c0.074-0.399,0.088-0.879,0.044-1.441C13.52,13.557,13.857,13.18,14.168,12.692z"/>
				</g>
				<g>
					<path fill="none" stroke="#28265C" stroke-width="3.3786" stroke-miterlimit="10" d="M14.168,12.692l0.232-0.031
						c0.472-0.116,0.954,0.003,1.45,0.357c0.176,0.675,0.199,1.446,0.073,2.309l-0.015,0.778l0.042,0.321l-0.086,0.236
						c0.033,0.237,0.034,0.53,0.008,0.883c0.019,0.324-0.009,0.694-0.088,1.11l0.059,0.441l1.204,0.277l0.848,0.222l0.349-0.047
						l0.247,0.08l0.82-0.007l0.809,0.004c0.256-1.272,0.221-2.704-0.099-4.294l0.07-0.336l-0.086-0.652l-0.145-0.203l-0.406-0.384
						c0.406-1.867,1.435-2.336,3.088-1.411l0.291,2.17l0.043,0.321l0.059,0.439l0.042,0.32c0.032,0.237,0.031,0.533-0.001,0.887
						l0.044,0.328l0.043,0.322c0.032,0.237,0.033,0.531,0.001,0.884l0.044,0.328l-0.059,0.448c0.053,0.258,0.163,0.501,0.334,0.73
						l0.116,0.87l0.043,0.32l-0.296,1.253c-0.127,0.379-0.184,0.829-0.173,1.353L23,23.659l-0.179,0.359l-0.074,0.335l-0.057,0.455
						l-0.073,0.34l-0.189,0.358c-0.084,0.223-0.16,0.529-0.223,0.915l-0.777,1.203c-0.575-0.89-0.916-1.985-1.021-3.285
						c-0.102-0.483-0.332-1.044-0.69-1.679l-0.043-0.321c-0.774,0.025-1.801-0.06-3.083-0.249l-0.238-0.078l-0.364-0.065
						l-0.238-0.079l-0.074,2.107l-0.057,0.455l-0.088,0.227l0.044,0.329l-0.84,2.432l-0.072,0.339
						c-0.215,0.177-0.501,0.362-0.864,0.554l-0.354-0.941l-0.188-0.524c-0.01-0.115-0.063-0.216-0.161-0.315l-0.392-2.044
						c0.135-0.66,0.215-1.519,0.238-2.577l0.017-0.767c-0.039-0.38-0.015-0.791,0.072-1.232c-0.074-0.277-0.074-0.572,0-0.885
						l-0.043-0.321c0.05-0.355,0.066-0.799,0.05-1.331c0.046-0.208,0.045-0.5,0-0.884l0.117-0.902l-0.043-0.322
						c0.074-0.399,0.088-0.879,0.044-1.441C13.52,13.557,13.857,13.18,14.168,12.692z"/>
				</g>
			</g>
			<g>
				<g>
					<linearGradient id="SVGID_2_" gradientUnits="userSpaceOnUse" x1="12.7065" y1="20.354" x2="23.5435" y2="20.354">
						<stop  offset="0" style="stop-color:#F4C21F"/>
						<stop  offset="0.079" style="stop-color:#F2AE1D"/>
						<stop  offset="0.192" style="stop-color:#F0941B"/>
						<stop  offset="0.3131" style="stop-color:#ED7C1A"/>
						<stop  offset="0.4428" style="stop-color:#EC6919"/>
						<stop  offset="0.5854" style="stop-color:#EA5B19"/>
						<stop  offset="0.7504" style="stop-color:#EA5219"/>
						<stop  offset="0.9904" style="stop-color:#EA5019"/>
					</linearGradient>
					<path fill="url(#SVGID_2_)" d="M14.169,12.947l0.233-0.032c0.47-0.115,0.952,0.004,1.45,0.357
						c0.174,0.675,0.197,1.446,0.071,2.31l-0.015,0.777l0.042,0.321l-0.086,0.236c0.032,0.236,0.034,0.531,0.008,0.884
						c0.021,0.322-0.009,0.692-0.087,1.11l0.059,0.441l1.203,0.277l0.848,0.221l0.349-0.047l0.247,0.08l0.82-0.004l0.809,0.002
						c0.256-1.274,0.221-2.704-0.099-4.294l0.071-0.336l-0.086-0.652l-0.144-0.202l-0.408-0.385
						c0.406-1.865,1.435-2.334,3.089-1.409l0.29,2.169l0.043,0.323l0.058,0.439l0.043,0.32c0.032,0.236,0.031,0.533-0.001,0.886
						l0.044,0.328l0.043,0.322c0.031,0.237,0.034,0.532,0,0.886l0.043,0.327l-0.058,0.448c0.053,0.259,0.163,0.501,0.333,0.729
						l0.116,0.871l0.043,0.319l-0.296,1.254c-0.126,0.379-0.184,0.829-0.174,1.353L23,23.916l-0.18,0.357l-0.072,0.336l-0.059,0.455
						l-0.073,0.339l-0.188,0.357c-0.084,0.226-0.16,0.529-0.224,0.916l-0.776,1.205c-0.574-0.89-0.916-1.985-1.021-3.285
						c-0.102-0.483-0.332-1.044-0.69-1.68l-0.042-0.321c-0.774,0.023-1.802-0.061-3.082-0.248l-0.24-0.08l-0.364-0.065l-0.238-0.078
						l-0.072,2.108l-0.057,0.454l-0.089,0.228l0.044,0.328l-0.841,2.433l-0.071,0.337c-0.215,0.178-0.502,0.363-0.865,0.556
						l-0.353-0.943l-0.188-0.522c-0.01-0.116-0.063-0.218-0.161-0.316l-0.391-2.043c0.135-0.663,0.215-1.52,0.238-2.578l0.016-0.769
						c-0.038-0.378-0.015-0.79,0.072-1.23c-0.074-0.275-0.074-0.57,0-0.885l-0.044-0.321c0.051-0.355,0.066-0.8,0.051-1.331
						c0.045-0.208,0.045-0.501,0-0.886l0.116-0.901l-0.042-0.323c0.073-0.397,0.087-0.878,0.044-1.44
						C13.521,13.812,13.857,13.433,14.169,12.947z"/>
				</g>
				<g>
					<path fill="none" stroke="#FFFFFF" stroke-width="0.8447" stroke-miterlimit="10" d="M14.169,12.947l0.233-0.032
						c0.47-0.115,0.952,0.004,1.45,0.357c0.174,0.675,0.197,1.446,0.071,2.31l-0.015,0.777l0.042,0.321l-0.086,0.236
						c0.032,0.236,0.034,0.531,0.008,0.884c0.021,0.322-0.009,0.692-0.087,1.11l0.059,0.441l1.203,0.277l0.848,0.221l0.349-0.047
						l0.247,0.08l0.82-0.004l0.809,0.002c0.256-1.274,0.221-2.704-0.099-4.294l0.071-0.336l-0.086-0.652l-0.144-0.202l-0.408-0.385
						c0.406-1.865,1.435-2.334,3.089-1.409l0.29,2.169l0.043,0.323l0.058,0.439l0.043,0.32c0.032,0.236,0.031,0.533-0.001,0.886
						l0.044,0.328l0.043,0.322c0.031,0.237,0.034,0.532,0,0.886l0.043,0.327l-0.058,0.448c0.053,0.259,0.163,0.501,0.333,0.729
						l0.116,0.871l0.043,0.319l-0.296,1.254c-0.126,0.379-0.184,0.829-0.174,1.353L23,23.916l-0.18,0.357l-0.072,0.336l-0.059,0.455
						l-0.073,0.339l-0.188,0.357c-0.084,0.226-0.16,0.529-0.224,0.916l-0.776,1.205c-0.574-0.89-0.916-1.985-1.021-3.285
						c-0.102-0.483-0.332-1.044-0.69-1.68l-0.042-0.321c-0.774,0.023-1.802-0.061-3.082-0.248l-0.24-0.08l-0.364-0.065l-0.238-0.078
						l-0.072,2.108l-0.057,0.454l-0.089,0.228l0.044,0.328l-0.841,2.433l-0.071,0.337c-0.215,0.178-0.502,0.363-0.865,0.556
						l-0.353-0.943l-0.188-0.522c-0.01-0.116-0.063-0.218-0.161-0.316l-0.391-2.043c0.135-0.663,0.215-1.52,0.238-2.578l0.016-0.769
						c-0.038-0.378-0.015-0.79,0.072-1.23c-0.074-0.275-0.074-0.57,0-0.885l-0.044-0.321c0.051-0.355,0.066-0.8,0.051-1.331
						c0.045-0.208,0.045-0.501,0-0.886l0.116-0.901l-0.042-0.323c0.073-0.397,0.087-0.878,0.044-1.44
						C13.521,13.812,13.857,13.433,14.169,12.947z"/>
				</g>
			</g>
		</g>
	</g>
	<g>
		<path fill="#DF6320" d="M56.312,6.024c0.794,0,1.324,0.265,1.588,0.793c1.542-0.728,3.205-1.179,4.991-1.355h0.926
			c1.871,0,3.249,0.429,4.131,1.288c0.991,1.015,1.531,2.491,1.62,4.43v1.321c0,2.094-0.309,4.078-0.926,5.951
			c-0.044,0.11-0.088,0.188-0.132,0.231c0.418,0.287,0.814,0.649,1.19,1.089c1.232,1.652,1.851,3.571,1.851,5.753v1.255
			c-0.221,2.709-0.672,5.223-1.354,7.536c-0.332,0.706-0.981,1.059-1.952,1.059c-0.881,0-1.322-0.53-1.322-1.586
			c0.882-2.998,1.322-5.53,1.322-7.603c0-2.204-0.341-3.66-1.023-4.363c-0.706-0.684-1.73-1.025-3.075-1.025
			c-2.533,0.044-5.002,0.452-7.404,1.223c0.044,1.277,0.088,3.042,0.132,5.288c0,3.569,0.133,6.258,0.397,8.065h-3.338
			c-0.244-1.256-0.376-3.944-0.398-8.065v-0.894c0-1.366-0.022-2.709-0.066-4.032c-0.242,0.466-0.705,0.729-1.389,0.794h-2.444
			c-0.045,0.748-0.078,1.5-0.101,2.248l0.034-0.035c0.88-0.658,1.598-0.989,2.148-0.989c0.903,0.045,1.388,0.56,1.454,1.555
			c0,0.638-0.362,1.166-1.091,1.584c-0.838,0.642-1.741,1.313-2.709,2.019c0,0.527-0.011,1.057-0.034,1.586c0.484,0,0.958,0,1.421,0
			c1.609,0.044,2.446,0.574,2.513,1.585c-0.044,1.038-0.606,1.598-1.686,1.686c-3.263,0.023-5.729,0.044-7.403,0.067
			c-1.015,0.045-1.995,0.065-2.943,0.065v-3.271c0.639-0.022,1.39-0.045,2.249-0.068c-0.574-0.66-1.091-1.343-1.554-2.05
			c-0.552-0.969-0.828-1.761-0.828-2.379c0.044-1.013,0.629-1.554,1.752-1.619c0.706,0.065,1.697,1.146,2.975,3.238
			c0.044-1.607,0.1-3.336,0.166-5.187c-2.227,0.018-3.714,0.053-4.461,0.096v-3.27c0.859-0.045,2.389-0.078,4.594-0.1
			c0.044-0.837,0.087-1.686,0.132-2.545c0.044-0.22,0.088-0.407,0.133-0.563c-0.705-0.11-1.355-0.209-1.951-0.297
			c-0.462,0.727-0.904,1.454-1.323,2.18l-2.776-2.28c2.138-3.9,4.285-7.293,6.445-10.18c0.617-0.529,1.245-0.793,1.884-0.793
			c0.947,0.11,1.476,0.65,1.587,1.619c0,0.111-0.023,0.209-0.067,0.297c0.993,0.485,2.38,1.355,4.166,2.611l-1.72,3.174
			c-1.586-1.059-2.986-2.005-4.197-2.843c-0.662,1.014-1.311,2.005-1.95,2.974c1.96,0.111,3.701,0.32,5.222,0.629
			c0.992,0.264,1.509,0.804,1.553,1.619c-0.022,0.992-0.628,1.521-1.818,1.587c-0.551-0.021-1.046-0.033-1.488-0.033
			C49.989,17.184,50,17.284,50,17.394c-0.022,0.417-0.066,1.255-0.132,2.512h1.157c1.278,0,2.071,0.274,2.379,0.825v-0.428
			c0.176-1.191,0.749-1.808,1.72-1.852c0.44,0.021,0.771,0.133,0.991,0.331c-0.639-6.17-1.014-9.895-1.124-11.172
			C55.035,6.575,55.476,6.045,56.312,6.024z M62.265,22.814c1.144,0,2.092,0.331,2.841,0.991c0.726,0.685,1.102,1.763,1.124,3.239
			v0.629c0,1.588-0.287,2.819-0.861,3.701c-0.639,0.903-1.442,1.354-2.412,1.354h-0.892c-1.367,0-2.413-0.506-3.14-1.521
			c-0.507-0.748-0.76-1.884-0.76-3.404v-0.662c0-1.54,0.341-2.686,1.024-3.436c0.528-0.507,1.355-0.805,2.479-0.893H62.265z
			 M59.255,18.22c0.573-0.132,1.124-0.232,1.652-0.298c-0.265-1.939-0.506-3.701-0.727-5.289c0.022-1.257,0.462-1.927,1.322-2.016
			c0.661,0,1.08,0.2,1.256,0.596c1.41,0.022,2.633,0.088,3.669,0.198c-0.133-1.058-0.453-1.817-0.958-2.28
			c-0.64-0.397-1.531-0.596-2.678-0.596c-1.521,0.044-2.986,0.463-4.396,1.257C58.682,12.501,58.969,15.311,59.255,18.22z
			 M62.131,29.688c0.616,0,1.002-0.229,1.157-0.692c0.198-0.286,0.297-0.814,0.297-1.587c0-0.551-0.111-0.938-0.331-1.157
			c-0.221-0.265-0.596-0.399-1.124-0.399c-0.552,0-0.905,0.125-1.058,0.366c-0.177,0.265-0.265,0.75-0.265,1.455
			c0,0.749,0.055,1.277,0.165,1.588C61.127,29.547,61.514,29.688,62.131,29.688z M63.75,17.625h1.289
			c0.243,0,0.462,0.01,0.661,0.033c0.354-1.365,0.584-2.556,0.695-3.569c-1.146-0.021-2.182-0.056-3.106-0.1
			C63.442,15.158,63.597,16.37,63.75,17.625z"/>
		<path fill="#DF6320" d="M88.229,5.627c0.991,0,1.52,0.573,1.587,1.719c0.264,1.895,0.473,3.757,0.627,5.586
			c0.33,0.044,0.616,0.098,0.86,0.165c1.586-3.394,2.775-5.706,3.569-6.94c0.596-0.551,1.244-0.827,1.951-0.827
			c1.078,0,1.662,0.627,1.749,1.884c0,0.507-0.164,1.047-0.494,1.621c1.52-0.287,3.117-0.485,4.789-0.596h1.324
			c2.003,0,3.426,0.65,4.264,1.951c1.168,1.103,1.761,4.275,1.785,9.52v1.056c-0.045,4.23-0.894,8.705-2.549,13.42
			c-0.308,0.97-0.965,1.454-1.98,1.454c-1.257,0-1.885-0.573-1.885-1.719c1.72-4.936,2.579-9.375,2.579-13.319
			c0-4.034-0.266-6.6-0.792-7.702c-0.598-0.639-1.304-0.958-2.116-0.958c-2.557,0.088-5.177,0.551-7.865,1.387
			c-1.08,2.095-1.906,3.89-2.478,5.387l-2.347-1.684c0.088,1.411,0.165,2.809,0.231,4.197h0.232
			c0.814,0.022,1.409,0.188,1.785,0.497c1.586-2.292,3.193-4.308,4.823-6.049c0.683-0.551,1.344-0.827,1.983-0.827
			c0.947,0.111,1.487,0.64,1.62,1.586c-0.045,0.596-0.318,1.223-0.825,1.884c-1.83,2.16-3.712,4.495-5.651,7.009l-1.686-1.422
			c-0.264,0.462-0.76,0.791-1.487,0.991c-0.221,0.063-0.43,0.134-0.629,0.196c0.044,1.544,0.067,3.063,0.067,4.563
			c-0.067,3.878-1.653,5.87-4.76,5.982c-1.674,0-3.161-0.408-4.462-1.224l-0.132-3.402c1.301,0.595,2.567,0.893,3.801,0.893
			c1.257,0,1.884-1.235,1.884-3.703c0-0.397-0.023-1.002-0.065-1.818c-2.271,0.793-4.496,1.62-6.678,2.479l-1.09-3.831
			c3.083-1.28,5.607-2.239,7.567-2.878c-0.132-1.563-0.264-3.405-0.396-5.521c-1.08,0.045-1.961,0.123-2.644,0.232
			c-0.2,1.52-0.385,3.14-0.562,4.86l-3.703-0.793c0.859-6.833,1.443-10.622,1.752-11.37c0.485-0.683,1.057-1.026,1.719-1.026
			c1.145,0.044,1.752,0.617,1.819,1.72c-0.023,0.507-0.123,1.21-0.298,2.115c-0.045,0.263-0.089,0.519-0.133,0.76
			c0.507-0.044,1.102-0.088,1.786-0.132c-0.132-1.718-0.264-3.558-0.396-5.52C86.28,6.266,86.93,5.648,88.229,5.627z
			 M102.639,21.228c0.946,0.089,1.486,0.618,1.617,1.587c-0.043,0.573-0.309,1.18-0.792,1.817c-2.334,2.908-4.758,6.051-7.268,9.419
			l-2.777-2.41c2.401-3.705,4.813-6.921,7.238-9.653C101.338,21.482,101.999,21.228,102.639,21.228z"/>
		<path fill="#DF6320" d="M127.545,5.759c0.881,0.088,1.379,0.574,1.487,1.454c-0.045,0.53-0.275,1.103-0.692,1.719
			c-0.707,0.97-1.4,1.95-2.083,2.942c0.617,0.926,1.144,1.938,1.584,3.041c0.881,2.402,1.324,5.079,1.324,8.032
			c0,3.482-0.375,6.189-1.124,8.13c-1.012,2.401-2.4,3.603-4.166,3.603c-1.408,0-2.566-0.615-3.47-1.85
			c-0.882-1.037-1.321-2.479-1.321-4.329c0-2.138,0.705-4.001,2.116-5.589c1.3-1.408,2.675-2.114,4.132-2.114
			c0.131,0,0.263,0.011,0.396,0.034c-0.198-2.117-0.64-3.978-1.322-5.586c-0.067-0.177-0.132-0.331-0.197-0.463
			c-1.036,1.52-2.071,3.04-3.106,4.561l-2.68-2.082c1.146-1.917,2.28-3.723,3.404-5.421c-0.483-0.353-1.002-0.672-1.553-0.959
			c-0.926-0.176-1.409-0.705-1.455-1.585c0.068-0.927,0.696-1.41,1.884-1.457c0.772,0,1.663,0.365,2.679,1.092
			c0.108,0.088,0.22,0.165,0.329,0.232c0.661-0.926,1.322-1.808,1.984-2.645C126.331,6.013,126.95,5.759,127.545,5.759z
			 M125.332,24.136c-0.728,0-1.4,0.487-2.019,1.455c-0.594,0.88-0.892,1.808-0.892,2.775c0,2.029,0.439,3.042,1.323,3.042
			c0.637,0,1.146-0.726,1.519-2.183c0.331-1.124,0.519-2.796,0.563-5.022C125.605,24.158,125.44,24.136,125.332,24.136z
			 M132.47,23.574c0.972,0,1.455,0.396,1.455,1.19c0,0.11-0.021,0.241-0.065,0.396c0.044,0.021,0.098,0.034,0.165,0.034
			c1.144,0.133,1.805,0.222,1.981,0.262c0.616,0.134,0.927,0.476,0.927,1.026c-0.067,0.683-0.462,1.036-1.191,1.057
			c-0.354,0-1.231-0.074-2.644-0.23c-0.131,0.441-0.229,0.828-0.297,1.157c0.219,0.021,0.452,0.043,0.693,0.065
			c1.08,0.111,1.698,0.188,1.852,0.231c0.641,0.132,0.958,0.484,0.958,1.059c-0.066,0.662-0.461,0.999-1.19,1.025
			c-0.374,0-1.223-0.089-2.545-0.266c0.022,0.616,0.099,1.035,0.232,1.256c0.199,0.418,0.528,0.628,0.99,0.628
			c0.883,0,1.81-0.274,2.777-0.825v2.544c-1.014,0.508-1.895,0.761-2.644,0.761h-0.498c-1.035,0-1.894-0.31-2.576-0.927
			c-0.708-0.728-1.058-1.827-1.058-3.304c0.022-1.983,0.464-4.01,1.322-6.083C131.335,23.97,131.787,23.62,132.47,23.574z
			 M134.024,5.065c0.927,0.044,1.41,0.441,1.451,1.19c0,0.396-0.118,0.716-0.362,0.958c-0.97,1.255-1.453,2.039-1.453,2.348
			c0,0.483,0.739,1.453,2.214,2.909l-0.727,0.76c1.277-0.265,2.488-0.441,3.635-0.529c-1.475-1.257-2.214-2.391-2.214-3.404
			c0-0.728,0.65-1.906,1.951-3.538c0.373-0.419,0.857-0.649,1.454-0.694c1.014,0.065,1.54,0.462,1.587,1.19
			c0,0.242-0.121,0.541-0.363,0.892c-0.905,1.255-1.354,1.973-1.354,2.149c0,0.528,0.671,1.333,2.015,2.412l-1.156,0.925h0.726
			c1.608,0,2.742,0.1,3.406,0.299c-1.719-1.345-2.58-2.602-2.58-3.768c0-0.662,0.738-1.751,2.216-3.273
			c0.398-0.529,0.837-0.804,1.323-0.826c0.926,0.044,1.41,0.485,1.453,1.322c0,0.506-0.616,1.432-1.853,2.777
			c0,0.618,0.762,1.466,2.283,2.544l-1.718,1.586c0.702,0.331,1.244,0.783,1.617,1.355c0.573,0.705,0.859,1.982,0.859,3.835v0.462
			c0,1.233-0.398,2.28-1.189,3.139c-0.991,1.189-3.229,1.784-6.711,1.784h-0.53c0.441,0.178,0.663,0.519,0.663,1.026v0.134
			c0.088,0,0.187,0.01,0.297,0.032c1.035,0.132,1.633,0.221,1.784,0.265c0.641,0.129,0.961,0.474,0.961,1.022
			c-0.068,0.683-0.477,1.037-1.224,1.059c-0.33,0-1.135-0.077-2.412-0.232c-0.111,0.463-0.188,0.872-0.23,1.223
			c0.218,0.023,0.471,0.046,0.76,0.067c0.946,0.088,1.498,0.146,1.65,0.164c0.617,0.133,0.927,0.486,0.927,1.058
			c-0.088,0.662-0.485,1.003-1.19,1.026c-0.33,0-1.079-0.057-2.249-0.166c0.023,0.551,0.092,0.936,0.2,1.155
			c0.175,0.51,0.462,0.762,0.858,0.762c0.75,0,1.542-0.274,2.381-0.825v2.544c-0.881,0.508-1.631,0.761-2.247,0.761h-0.464
			c-1.013,0-1.853-0.354-2.511-1.059c-0.686-0.816-1.025-2.049-1.025-3.702c0.021-1.762,0.34-3.567,0.959-5.42
			c0.13-0.464,0.385-0.76,0.761-0.894h-0.53c-2.248,0-4.098-0.251-5.554-0.759c-1.762-0.684-2.644-1.84-2.644-3.47v-0.398
			c0-1.586,0.275-3.171,0.827-4.758c0.307-0.816,0.838-1.256,1.586-1.322c-0.551-0.64-1.057-1.29-1.521-1.951
			c-0.33-0.551-0.497-1.002-0.497-1.355c0-0.308,0.112-0.662,0.332-1.059c0.418-0.859,1.058-1.872,1.916-3.04
			C132.987,5.318,133.474,5.087,134.024,5.065z M135.874,20.896l-1.026-1.254c0.995-1.08,1.986-2.116,2.977-3.107
			c0.462-0.484,0.881-0.838,1.255-1.058c-1.982,0.131-3.799,0.44-5.45,0.925c-0.244,0.948-0.365,1.763-0.365,2.446
			c0,0.882,0.419,1.466,1.256,1.753C134.872,20.711,135.324,20.81,135.874,20.896z M142.618,20.896
			c-1.453-0.77-2.756-1.486-3.899-2.148c-0.729,0.706-1.487,1.432-2.283,2.183c0.926,0.109,2.06,0.166,3.407,0.166
			C140.92,21.097,141.848,21.029,142.618,20.896z M141.165,15.411h-0.53c0.178,0.197,0.275,0.452,0.298,0.759
			c0,0.354-0.165,0.674-0.496,0.959c0.881,0.397,2.093,1.091,3.637,2.082l-0.697,1.587c0.465-0.133,0.872-0.364,1.225-0.695
			c0.329-0.242,0.519-0.747,0.563-1.519c0-1.455-0.331-2.38-0.995-2.777C143.773,15.542,142.772,15.411,141.165,15.411z
			 M146.483,23.574c0.926,0.067,1.411,0.509,1.454,1.323c0,0.086-0.053,0.285-0.163,0.595c-0.773,2.47-1.159,4.352-1.159,5.652
			c0,0.746,0.089,1.266,0.266,1.554c0.177,0.265,0.441,0.396,0.795,0.396c0.572-0.175,1.012-0.428,1.321-0.762v2.216
			c-1.036,0.704-1.664,1.067-1.884,1.091c-1.104,0-1.919-0.287-2.446-0.857c-0.57-0.597-0.86-1.599-0.86-3.01
			c0-1.102,0.111-2.202,0.331-3.305c0.311-1.521,0.649-2.798,1.026-3.835C145.359,23.994,145.801,23.642,146.483,23.574z"/>
		<path fill="#DF6320" d="M174.666,5.462c1.101,0.065,1.728,0.65,1.884,1.751c0,0.309-0.099,0.706-0.297,1.189
			c-2.094,3.637-3.977,6.953-5.652,9.951c7.072,3.435,12.889,6.63,17.451,9.583l-2.015,3.97
			c-5.115-3.638-10.897-6.999-17.352-10.082c-2.977,5.466-5.169,9.75-6.58,12.856l-3.801-1.817
			c8.086-15.271,12.89-23.963,14.41-26.079C173.09,5.969,173.741,5.527,174.666,5.462z"/>
	</g>
</g>
</svg>
