<?xml version="1.0" encoding="utf-8"?>
<!-- Generator: Adobe Illustrator 16.0.0, SVG Export Plug-In . SVG Version: 6.00 Build 0)  -->
<!DOCTYPE svg PUBLIC "-//W3C//DTD SVG 1.1//EN" "http://www.w3.org/Graphics/SVG/1.1/DTD/svg11.dtd">
<svg version="1.1" id="圖層_1" xmlns="http://www.w3.org/2000/svg" xmlns:xlink="http://www.w3.org/1999/xlink" x="0px" y="0px"
	 width="120px" height="24px" viewBox="0 0 120 24" enable-background="new 0 0 120 24" xml:space="preserve">
<g>
	<path fill="#262E3A" d="M21.096,17.13c-0.292,0.518-0.639,1.003-1.032,1.446l0.011,0.011l-0.365,0.366
		c-1.627,1.638-3.793,2.541-6.1,2.541c-2.297,0-4.457-0.896-6.081-2.522c-1.624-1.622-2.519-3.785-2.519-6.081
		c0-0.169,0.005-0.341,0.016-0.513c0.001-0.022,0.003-0.046,0.004-0.071l0-0.007c0.001-0.014,0.002-0.03,0.003-0.046l0.001-0.008
		c0.002-0.036,0.005-0.072,0.009-0.107c0.002-0.029,0.005-0.06,0.009-0.091c0.004-0.046,0.009-0.092,0.014-0.139
		c0.003-0.027,0.006-0.057,0.011-0.086c0.003-0.039,0.009-0.082,0.015-0.124c0.004-0.023,0.007-0.046,0.01-0.068
		c0.006-0.041,0.013-0.082,0.019-0.125c0.003-0.023,0.008-0.048,0.013-0.073c0.003-0.021,0.007-0.042,0.011-0.064
		c0.004-0.027,0.01-0.059,0.016-0.088c0.005-0.027,0.011-0.057,0.016-0.086c0.007-0.033,0.014-0.067,0.022-0.1
		c0.049-0.236,0.109-0.472,0.178-0.701l0.002-0.006c0.009-0.031,0.019-0.061,0.028-0.091c0.008-0.026,0.016-0.052,0.025-0.078
		c0.048-0.15,0.103-0.302,0.161-0.449C5.602,9.749,5.61,9.728,5.619,9.706c0.009-0.022,0.019-0.046,0.028-0.07
		c0.011-0.028,0.024-0.06,0.038-0.092c0.009-0.023,0.021-0.051,0.032-0.077l0.005-0.011C5.738,9.421,5.753,9.385,5.77,9.35
		c0.012-0.027,0.023-0.053,0.036-0.08c0.218-0.467,0.48-0.919,0.781-1.344l0.048-0.067C6.67,7.812,6.704,7.766,6.738,7.72
		c0.017-0.021,0.034-0.045,0.051-0.066c0.038-0.049,0.076-0.097,0.114-0.146c0.022-0.027,0.044-0.055,0.069-0.082
		c0.02-0.026,0.044-0.054,0.067-0.082c0.022-0.027,0.046-0.055,0.07-0.081C7.136,7.232,7.163,7.201,7.19,7.169L6.18,6.16
		c-1.675,1.845-2.595,4.228-2.595,6.731c0,2.68,1.042,5.195,2.937,7.092c1.894,1.895,4.412,2.938,7.09,2.938
		c2.686,0,5.21-1.05,7.104-2.956c0.542-0.542,1.019-1.147,1.42-1.791L21.096,17.13z"/>
	<path fill="#EC661B" d="M8.264,18.24c1.428,1.427,3.327,2.217,5.347,2.217c0.063,0,0.126-0.002,0.189-0.004
		c0.032,0,0.063-0.002,0.094-0.004h0.005c0.046-0.002,0.092-0.002,0.14-0.008c0.037-0.002,0.073-0.002,0.111-0.004
		c0.019-0.002,0.035-0.004,0.05-0.006l0.025-0.002c0.034-0.004,0.068-0.004,0.103-0.008c0.031-0.004,0.059-0.008,0.089-0.01
		c0.021-0.002,0.039-0.004,0.057-0.006l0.038-0.006c0.025-0.002,0.049-0.004,0.075-0.008c0.093-0.012,0.186-0.024,0.275-0.04
		c0.026-0.004,0.051-0.01,0.075-0.012l0.008-0.002c0.02-0.006,0.04-0.008,0.059-0.012l0.01-0.002
		c0.026-0.004,0.052-0.01,0.078-0.015c0.068-0.014,0.134-0.027,0.2-0.041c0.044-0.009,0.088-0.021,0.133-0.032l0.006-0.002
		c0.011-0.002,0.022-0.004,0.034-0.008c0.033-0.008,0.062-0.018,0.092-0.023c0.025-0.008,0.049-0.014,0.073-0.021
		c0.021-0.004,0.04-0.01,0.058-0.016c0.018-0.003,0.031-0.007,0.044-0.013l0.011-0.002c0.019-0.006,0.037-0.012,0.056-0.018
		c0.031-0.008,0.059-0.017,0.086-0.024c0.021-0.008,0.041-0.014,0.061-0.021c0.064-0.02,0.126-0.042,0.189-0.063
		c0.018-0.006,0.035-0.012,0.05-0.02l0.012-0.002c0.023-0.008,0.043-0.016,0.062-0.023c0.031-0.012,0.06-0.021,0.087-0.032
		c0.023-0.01,0.043-0.018,0.063-0.024c0.039-0.016,0.074-0.029,0.109-0.045l0.105-0.044c0.034-0.016,0.065-0.029,0.096-0.045
		c0.019-0.006,0.035-0.016,0.05-0.021l0.016-0.008c0.025-0.012,0.052-0.022,0.078-0.035c0.159-0.078,0.315-0.159,0.468-0.243
		c0.016-0.01,0.031-0.02,0.047-0.027c0.035-0.021,0.069-0.04,0.104-0.063l0.172-0.104c0.077-0.049,0.156-0.103,0.241-0.162
		c0.023-0.015,0.047-0.032,0.07-0.048l0.01-0.008c0.018-0.014,0.036-0.025,0.052-0.039l0.005-0.004
		c0.014-0.009,0.027-0.019,0.039-0.026l0.004-0.006c0.022-0.016,0.043-0.031,0.065-0.046c0.024-0.02,0.047-0.036,0.07-0.052
		c0.015-0.014,0.029-0.025,0.043-0.035l0.016-0.014c0.024-0.018,0.047-0.036,0.071-0.058c0.025-0.018,0.049-0.038,0.073-0.058
		l0.006-0.006c0.046-0.036,0.09-0.073,0.135-0.114c0.015-0.011,0.028-0.024,0.042-0.035l-1.01-1.012
		c-1.108,0.943-2.511,1.461-3.975,1.461c-3.383,0-6.135-2.753-6.135-6.137c0-1.648,0.645-3.196,1.815-4.356
		c0.55-0.544,1.208-0.986,1.918-1.29l-1.073-1.072C9.455,6.527,8.83,6.983,8.281,7.528C6.842,8.959,6.05,10.863,6.05,12.891
		C6.05,14.91,6.836,16.811,8.264,18.24z"/>
	<path fill="#EC661B" d="M22.19,11.008c0-2.677-1.042-5.195-2.936-7.088c-1.894-1.894-4.412-2.937-7.09-2.937
		c-2.686,0-5.21,1.049-7.105,2.954C4.518,4.479,4.041,5.082,3.639,5.73L4.68,6.771c0.292-0.515,0.638-1,1.031-1.447L5.701,5.313
		l0.364-0.366C7.692,3.311,9.858,2.41,12.164,2.41c2.297,0,4.458,0.895,6.081,2.518c1.625,1.625,2.52,3.784,2.52,6.08
		c0,0.172-0.005,0.343-0.016,0.514c-0.001,0.022-0.002,0.047-0.004,0.071c-0.001,0.018-0.003,0.035-0.004,0.052l-0.001,0.009
		c-0.002,0.035-0.005,0.072-0.008,0.107c-0.002,0.029-0.006,0.061-0.008,0.092c-0.004,0.045-0.009,0.091-0.014,0.137
		c-0.003,0.027-0.007,0.057-0.011,0.086c-0.004,0.038-0.01,0.081-0.016,0.123c-0.003,0.024-0.006,0.046-0.011,0.069
		c-0.004,0.04-0.011,0.081-0.018,0.124c-0.003,0.025-0.008,0.05-0.012,0.075c-0.003,0.022-0.007,0.043-0.011,0.064
		c-0.005,0.026-0.01,0.058-0.016,0.09c-0.004,0.025-0.01,0.056-0.017,0.083c-0.007,0.034-0.014,0.067-0.021,0.104
		c-0.049,0.234-0.109,0.469-0.178,0.699c-0.01,0.03-0.02,0.061-0.031,0.096c-0.007,0.026-0.016,0.052-0.024,0.079
		c-0.049,0.149-0.104,0.302-0.161,0.449c-0.008,0.018-0.016,0.039-0.025,0.063s-0.018,0.044-0.027,0.067
		c-0.011,0.029-0.025,0.063-0.038,0.092c-0.009,0.025-0.021,0.051-0.033,0.078l-0.005,0.012c-0.016,0.034-0.032,0.071-0.048,0.105
		c-0.012,0.024-0.023,0.054-0.036,0.079c-0.217,0.468-0.48,0.922-0.781,1.346l-0.048,0.067c-0.035,0.046-0.068,0.094-0.103,0.139
		c-0.017,0.021-0.034,0.046-0.051,0.067c-0.039,0.048-0.076,0.098-0.114,0.145c-0.023,0.027-0.045,0.054-0.069,0.082
		c-0.019,0.025-0.041,0.052-0.063,0.077l-0.003,0.004c-0.024,0.027-0.048,0.057-0.071,0.081c-0.027,0.032-0.054,0.063-0.081,0.093
		l1.009,1.013C21.271,15.896,22.19,13.512,22.19,11.008z"/>
	<path fill="#262E3A" d="M14.565,16.655l1.072,1.073c0.684-0.354,1.309-0.811,1.857-1.355c1.439-1.431,2.232-3.337,2.232-5.365
		c0-2.019-0.787-3.917-2.215-5.346c-1.428-1.428-3.327-2.214-5.347-2.214c-0.063,0-0.126,0.001-0.189,0.002
		c-0.032,0.001-0.062,0.001-0.093,0.002h-0.005c-0.047,0.002-0.093,0.004-0.139,0.007c-0.038,0.002-0.074,0.004-0.11,0.006
		c-0.019,0.001-0.036,0.002-0.051,0.004L11.55,3.473c-0.034,0.001-0.068,0.005-0.102,0.008c-0.031,0.003-0.06,0.005-0.089,0.008
		c-0.02,0.003-0.039,0.004-0.057,0.006l-0.03,0.003c-0.004,0-0.007,0.001-0.01,0.001c-0.024,0.003-0.048,0.005-0.074,0.008
		c-0.093,0.012-0.185,0.026-0.274,0.042c-0.026,0.004-0.05,0.007-0.075,0.013l-0.008,0.001c-0.02,0.003-0.038,0.007-0.057,0.01
		l-0.012,0.002c-0.025,0.004-0.05,0.009-0.075,0.014c-0.07,0.014-0.136,0.027-0.203,0.043c-0.044,0.01-0.089,0.021-0.133,0.032
		l-0.005,0.001c-0.012,0.001-0.023,0.005-0.034,0.008c-0.033,0.008-0.063,0.016-0.093,0.023c-0.024,0.007-0.049,0.014-0.073,0.021
		c-0.022,0.005-0.041,0.011-0.059,0.016c-0.018,0.005-0.031,0.009-0.045,0.013l-0.01,0.003c-0.019,0.005-0.037,0.01-0.055,0.016
		C9.947,3.776,9.919,3.785,9.893,3.793C9.87,3.801,9.851,3.807,9.831,3.813C9.767,3.833,9.704,3.855,9.642,3.876
		C9.625,3.882,9.609,3.888,9.593,3.894L9.579,3.899C9.558,3.907,9.539,3.914,9.52,3.92C9.487,3.933,9.459,3.943,9.431,3.955
		C9.408,3.963,9.388,3.972,9.367,3.979C9.328,3.995,9.293,4.01,9.258,4.024L9.153,4.069C9.12,4.083,9.088,4.097,9.056,4.111
		C9.038,4.12,9.022,4.127,9.007,4.134L8.991,4.141C8.965,4.153,8.939,4.166,8.914,4.178C8.755,4.253,8.598,4.335,8.446,4.421
		C8.429,4.431,8.415,4.439,8.399,4.448C8.366,4.467,8.333,4.487,8.3,4.506L8.191,4.573C8.169,4.587,8.145,4.602,8.122,4.616
		C8.044,4.665,7.966,4.717,7.881,4.775C7.86,4.791,7.838,4.806,7.816,4.821l-0.014,0.01c-0.02,0.014-0.037,0.026-0.055,0.039
		L7.741,4.875C7.729,4.884,7.717,4.893,7.705,4.901L7.701,4.905C7.679,4.921,7.657,4.936,7.635,4.952
		C7.611,4.97,7.588,4.988,7.565,5.006c-0.016,0.012-0.03,0.023-0.043,0.033L7.505,5.053C7.482,5.071,7.458,5.089,7.434,5.11
		C7.407,5.13,7.382,5.152,7.356,5.173C7.31,5.211,7.265,5.249,7.219,5.288C7.205,5.301,7.193,5.312,7.179,5.324l1.011,1.012
		c1.107-0.944,2.511-1.461,3.975-1.461c3.383,0,6.136,2.751,6.136,6.134c0,1.649-0.646,3.197-1.816,4.358
		C15.934,15.908,15.276,16.352,14.565,16.655z"/>
	<g>
		<g>
			<g>
				
					<linearGradient id="SVGID_1_" gradientUnits="userSpaceOnUse" x1="8.8071" y1="12.0415" x2="15.3818" y2="12.0415" gradientTransform="matrix(1 0 0 1 1.0005 0)">
					<stop  offset="0" style="stop-color:#F5A322"/>
					<stop  offset="0.1117" style="stop-color:#E7892E"/>
					<stop  offset="0.2438" style="stop-color:#DA7034"/>
					<stop  offset="0.3868" style="stop-color:#D05C37"/>
					<stop  offset="0.5439" style="stop-color:#C94E38"/>
					<stop  offset="0.7258" style="stop-color:#C64639"/>
					<stop  offset="0.9904" style="stop-color:#C44339"/>
				</linearGradient>
				<path fill="url(#SVGID_1_)" d="M10.695,7.548l0.141-0.019c0.286-0.07,0.578,0.002,0.88,0.216
					c0.106,0.409,0.121,0.877,0.043,1.401L11.75,9.619l0.026,0.194l-0.052,0.143c0.02,0.144,0.021,0.322,0.005,0.536
					c0.011,0.196-0.006,0.421-0.054,0.674l0.036,0.268l0.73,0.168l0.514,0.134l0.212-0.028l0.15,0.049l0.497-0.004l0.492,0.002
					c0.154-0.772,0.134-1.64-0.061-2.605l0.043-0.204L14.236,8.55l-0.087-0.123l-0.247-0.233c0.246-1.132,0.87-1.417,1.874-0.856
					l0.176,1.316l0.026,0.195l0.036,0.267l0.026,0.194c0.019,0.144,0.019,0.323,0,0.538l0.027,0.199l0.026,0.195
					c0.02,0.144,0.02,0.323,0,0.537l0.027,0.199l-0.036,0.271c0.032,0.157,0.099,0.304,0.203,0.443l0.07,0.527l0.026,0.194
					l-0.18,0.76c-0.076,0.229-0.111,0.503-0.105,0.821l-0.045,0.206l-0.108,0.218l-0.045,0.203l-0.035,0.276l-0.044,0.205
					l-0.115,0.218c-0.051,0.136-0.097,0.32-0.135,0.555l-0.472,0.731c-0.348-0.54-0.555-1.205-0.619-1.993
					c-0.062-0.294-0.201-0.634-0.418-1.02l-0.026-0.194c-0.47,0.015-1.093-0.036-1.87-0.15l-0.145-0.049l-0.22-0.038l-0.145-0.049
					l-0.044,1.278l-0.035,0.276l-0.054,0.138l0.027,0.199l-0.509,1.476l-0.044,0.205c-0.13,0.107-0.304,0.22-0.524,0.337
					l-0.214-0.572l-0.115-0.318c-0.006-0.069-0.038-0.131-0.098-0.19l-0.237-1.24c0.083-0.401,0.131-0.922,0.145-1.563l0.01-0.466
					c-0.023-0.229-0.009-0.479,0.043-0.747c-0.044-0.168-0.044-0.347,0-0.538l-0.026-0.194c0.03-0.216,0.04-0.485,0.03-0.807
					c0.028-0.126,0.027-0.304,0-0.537l0.071-0.547l-0.026-0.195c0.045-0.242,0.054-0.533,0.027-0.875
					C10.302,8.073,10.506,7.844,10.695,7.548z"/>
			</g>
			<g>
				<path fill="none" stroke="#28265C" stroke-width="2.0498" stroke-miterlimit="10" d="M10.695,7.548l0.141-0.019
					c0.286-0.07,0.578,0.002,0.88,0.216c0.106,0.409,0.121,0.877,0.043,1.401L11.75,9.619l0.026,0.194l-0.052,0.143
					c0.02,0.144,0.021,0.322,0.005,0.536c0.011,0.196-0.006,0.421-0.054,0.674l0.036,0.268l0.73,0.168l0.514,0.134l0.212-0.028
					l0.15,0.049l0.497-0.004l0.492,0.002c0.154-0.772,0.134-1.64-0.061-2.605l0.043-0.204L14.236,8.55l-0.087-0.123l-0.247-0.233
					c0.246-1.132,0.87-1.417,1.874-0.856l0.176,1.316l0.026,0.195l0.036,0.267l0.026,0.194c0.019,0.144,0.019,0.323,0,0.538
					l0.027,0.199l0.026,0.195c0.02,0.144,0.02,0.323,0,0.537l0.027,0.199l-0.036,0.271c0.032,0.157,0.099,0.304,0.203,0.443
					l0.07,0.527l0.026,0.194l-0.18,0.76c-0.076,0.229-0.111,0.503-0.105,0.821l-0.045,0.206l-0.108,0.218l-0.045,0.203l-0.035,0.276
					l-0.044,0.205l-0.115,0.218c-0.051,0.136-0.097,0.32-0.135,0.555l-0.472,0.731c-0.348-0.54-0.555-1.205-0.619-1.993
					c-0.062-0.294-0.201-0.634-0.418-1.02l-0.026-0.194c-0.47,0.015-1.093-0.036-1.87-0.15l-0.145-0.049l-0.22-0.038l-0.145-0.049
					l-0.044,1.278l-0.035,0.276l-0.054,0.138l0.027,0.199l-0.509,1.476l-0.044,0.205c-0.13,0.107-0.304,0.22-0.524,0.337
					l-0.214-0.572l-0.115-0.318c-0.006-0.069-0.038-0.131-0.098-0.19l-0.237-1.24c0.083-0.401,0.131-0.922,0.145-1.563l0.01-0.466
					c-0.023-0.229-0.009-0.479,0.043-0.747c-0.044-0.168-0.044-0.347,0-0.538l-0.026-0.194c0.03-0.216,0.04-0.485,0.03-0.807
					c0.028-0.126,0.027-0.304,0-0.537l0.071-0.547l-0.026-0.195c0.045-0.242,0.054-0.533,0.027-0.875
					C10.302,8.073,10.506,7.844,10.695,7.548z"/>
			</g>
		</g>
		<g>
			<g>
				
					<linearGradient id="SVGID_2_" gradientUnits="userSpaceOnUse" x1="8.8076" y1="12.478" x2="15.3823" y2="12.478" gradientTransform="matrix(1 0 0 1 1.0005 -0.2813)">
					<stop  offset="0" style="stop-color:#F4C21F"/>
					<stop  offset="0.079" style="stop-color:#F2AE1D"/>
					<stop  offset="0.192" style="stop-color:#F0941B"/>
					<stop  offset="0.3131" style="stop-color:#ED7C1A"/>
					<stop  offset="0.4428" style="stop-color:#EC6919"/>
					<stop  offset="0.5854" style="stop-color:#EA5B19"/>
					<stop  offset="0.7504" style="stop-color:#EA5219"/>
					<stop  offset="0.9904" style="stop-color:#EA5019"/>
				</linearGradient>
				<path fill="url(#SVGID_2_)" d="M10.696,7.703l0.141-0.019c0.285-0.07,0.578,0.002,0.88,0.216c0.106,0.41,0.12,0.878,0.043,1.402
					l-0.009,0.471l0.026,0.194l-0.052,0.144c0.019,0.144,0.021,0.322,0.005,0.536c0.012,0.196-0.006,0.421-0.053,0.674l0.036,0.268
					l0.73,0.168l0.514,0.134l0.212-0.028l0.15,0.049l0.497-0.004l0.491,0.002c0.154-0.772,0.134-1.64-0.061-2.605L14.29,9.1
					l-0.053-0.396l-0.087-0.123l-0.247-0.233c0.246-1.132,0.871-1.417,1.874-0.855l0.176,1.316l0.026,0.195l0.036,0.267l0.026,0.194
					c0.019,0.144,0.019,0.323,0,0.538l0.027,0.199l0.026,0.195c0.019,0.144,0.02,0.322,0,0.537l0.026,0.199l-0.035,0.271
					c0.032,0.157,0.099,0.304,0.202,0.443l0.071,0.527l0.026,0.194l-0.18,0.761c-0.076,0.229-0.111,0.503-0.105,0.821l-0.044,0.206
					l-0.109,0.218L15.9,14.778l-0.035,0.276L15.82,15.26l-0.114,0.218c-0.052,0.136-0.097,0.32-0.136,0.555l-0.471,0.731
					c-0.348-0.54-0.555-1.205-0.62-1.993c-0.062-0.294-0.201-0.634-0.418-1.02l-0.026-0.194c-0.47,0.015-1.093-0.036-1.87-0.15
					l-0.145-0.049L11.8,13.318l-0.145-0.048l-0.044,1.278l-0.035,0.276l-0.054,0.138l0.027,0.199l-0.51,1.476l-0.044,0.205
					c-0.13,0.107-0.304,0.22-0.524,0.337l-0.214-0.572l-0.115-0.318c-0.006-0.069-0.038-0.131-0.098-0.191l-0.237-1.239
					c0.083-0.401,0.131-0.922,0.145-1.563l0.009-0.466c-0.023-0.23-0.009-0.479,0.044-0.747c-0.044-0.168-0.044-0.347,0-0.538
					L9.979,11.35c0.03-0.216,0.04-0.485,0.03-0.807c0.028-0.126,0.027-0.304,0-0.537l0.07-0.547l-0.026-0.195
					c0.044-0.242,0.053-0.533,0.027-0.875C10.302,8.228,10.507,7.998,10.696,7.703z"/>
			</g>
			<g>
				<path fill="none" stroke="#FFFFFF" stroke-width="0.5124" stroke-miterlimit="10" d="M10.696,7.703l0.141-0.019
					c0.285-0.07,0.578,0.002,0.88,0.216c0.106,0.41,0.12,0.878,0.043,1.402l-0.009,0.471l0.026,0.194l-0.052,0.144
					c0.019,0.144,0.021,0.322,0.005,0.536c0.012,0.196-0.006,0.421-0.053,0.674l0.036,0.268l0.73,0.168l0.514,0.134l0.212-0.028
					l0.15,0.049l0.497-0.004l0.491,0.002c0.154-0.772,0.134-1.64-0.061-2.605L14.29,9.1l-0.053-0.396l-0.087-0.123l-0.247-0.233
					c0.246-1.132,0.871-1.417,1.874-0.855l0.176,1.316l0.026,0.195l0.036,0.267l0.026,0.194c0.019,0.144,0.019,0.323,0,0.538
					l0.027,0.199l0.026,0.195c0.019,0.144,0.02,0.322,0,0.537l0.026,0.199l-0.035,0.271c0.032,0.157,0.099,0.304,0.202,0.443
					l0.071,0.527l0.026,0.194l-0.18,0.761c-0.076,0.229-0.111,0.503-0.105,0.821l-0.044,0.206l-0.109,0.218L15.9,14.778
					l-0.035,0.276L15.82,15.26l-0.114,0.218c-0.052,0.136-0.097,0.32-0.136,0.555l-0.471,0.731c-0.348-0.54-0.555-1.205-0.62-1.993
					c-0.062-0.294-0.201-0.634-0.418-1.02l-0.026-0.194c-0.47,0.015-1.093-0.036-1.87-0.15l-0.145-0.049L11.8,13.318l-0.145-0.048
					l-0.044,1.278l-0.035,0.276l-0.054,0.138l0.027,0.199l-0.51,1.476l-0.044,0.205c-0.13,0.107-0.304,0.22-0.524,0.337
					l-0.214-0.572l-0.115-0.318c-0.006-0.069-0.038-0.131-0.098-0.191l-0.237-1.239c0.083-0.401,0.131-0.922,0.145-1.563
					l0.009-0.466c-0.023-0.23-0.009-0.479,0.044-0.747c-0.044-0.168-0.044-0.347,0-0.538L9.979,11.35
					c0.03-0.216,0.04-0.485,0.03-0.807c0.028-0.126,0.027-0.304,0-0.537l0.07-0.547l-0.026-0.195
					c0.044-0.242,0.053-0.533,0.027-0.875C10.302,8.228,10.507,7.998,10.696,7.703z"/>
			</g>
		</g>
	</g>
</g>
<g>
	<path fill="#DF6320" d="M36.264,3.502c0.481,0,0.803,0.16,0.963,0.481c0.936-0.441,1.945-0.715,3.028-0.822h0.562
		c1.136,0,1.972,0.26,2.506,0.782c0.602,0.615,0.929,1.511,0.983,2.688v0.802c0,1.27-0.188,2.474-0.562,3.609
		c-0.027,0.067-0.053,0.114-0.08,0.141c0.254,0.174,0.495,0.395,0.722,0.662c0.748,1.002,1.123,2.166,1.123,3.49v0.762
		c-0.134,1.644-0.408,3.168-0.822,4.572c-0.201,0.428-0.595,0.642-1.184,0.642c-0.535,0-0.802-0.321-0.802-0.963
		c0.535-1.817,0.802-3.354,0.802-4.612c0-1.337-0.207-2.22-0.622-2.646c-0.428-0.415-1.049-0.622-1.865-0.622
		c-1.538,0.027-3.035,0.274-4.492,0.742c0.027,0.775,0.053,1.846,0.08,3.208c0,2.166,0.081,3.797,0.241,4.894H34.82
		c-0.147-0.762-0.228-2.394-0.241-4.894v-0.541c0-0.829-0.014-1.645-0.04-2.447c-0.147,0.282-0.428,0.442-0.842,0.482h-1.483
		c-0.027,0.454-0.047,0.909-0.061,1.363l0.02-0.021c0.534-0.4,0.969-0.601,1.303-0.601c0.548,0.026,0.842,0.34,0.882,0.942
		c0,0.388-0.22,0.708-0.662,0.962c-0.508,0.389-1.056,0.796-1.644,1.224c0,0.321-0.007,0.642-0.021,0.963c0.294,0,0.582,0,0.862,0
		c0.976,0.026,1.484,0.348,1.524,0.962c-0.027,0.629-0.368,0.969-1.022,1.022c-1.979,0.014-3.476,0.026-4.492,0.041
		c-0.615,0.026-1.21,0.039-1.785,0.039v-1.984c0.388-0.014,0.843-0.027,1.364-0.041c-0.348-0.4-0.662-0.814-0.942-1.243
		c-0.334-0.588-0.502-1.069-0.502-1.443c0.027-0.615,0.381-0.943,1.063-0.982c0.428,0.039,1.029,0.695,1.805,1.965
		c0.027-0.976,0.061-2.024,0.101-3.147c-1.351,0.012-2.253,0.032-2.707,0.059v-1.984c0.521-0.026,1.45-0.047,2.787-0.061
		c0.027-0.507,0.053-1.022,0.08-1.543c0.027-0.134,0.054-0.248,0.081-0.341c-0.428-0.067-0.823-0.127-1.183-0.18
		c-0.281,0.441-0.549,0.882-0.803,1.323l-1.684-1.384c1.296-2.366,2.6-4.424,3.91-6.176c0.374-0.321,0.755-0.481,1.143-0.481
		c0.575,0.067,0.896,0.394,0.963,0.982c0,0.067-0.014,0.127-0.041,0.18c0.602,0.294,1.444,0.822,2.527,1.584l-1.043,1.925
		c-0.962-0.642-1.812-1.216-2.546-1.725c-0.401,0.615-0.795,1.216-1.183,1.805c1.189,0.067,2.246,0.194,3.168,0.381
		c0.602,0.161,0.916,0.488,0.942,0.982c-0.013,0.602-0.381,0.923-1.103,0.963c-0.334-0.013-0.635-0.02-0.902-0.02
		c0.013,0.053,0.021,0.114,0.021,0.181c-0.014,0.253-0.04,0.762-0.08,1.524h0.702c0.775,0,1.256,0.167,1.444,0.501v-0.26
		c0.106-0.722,0.454-1.097,1.043-1.124c0.267,0.014,0.468,0.081,0.601,0.201C35.756,7.5,35.529,5.24,35.462,4.465
		C35.489,3.836,35.756,3.516,36.264,3.502z M39.874,13.689c0.694,0,1.27,0.2,1.724,0.602c0.441,0.415,0.668,1.069,0.682,1.965v0.381
		c0,0.963-0.174,1.711-0.521,2.246c-0.388,0.548-0.875,0.822-1.463,0.822h-0.542c-0.829,0-1.464-0.308-1.905-0.923
		c-0.308-0.454-0.461-1.143-0.461-2.065v-0.401c0-0.935,0.207-1.63,0.622-2.085c0.321-0.307,0.822-0.488,1.504-0.541H39.874z
		 M38.049,10.902c0.348-0.08,0.682-0.141,1.002-0.181c-0.16-1.176-0.307-2.246-0.441-3.208c0.013-0.762,0.281-1.169,0.802-1.223
		c0.401,0,0.655,0.121,0.762,0.361c0.855,0.013,1.597,0.053,2.226,0.12c-0.081-0.642-0.274-1.103-0.582-1.384
		c-0.388-0.241-0.929-0.361-1.625-0.361c-0.922,0.027-1.812,0.281-2.667,0.762C37.701,7.433,37.875,9.137,38.049,10.902z
		 M39.793,17.86c0.374,0,0.608-0.14,0.702-0.422c0.12-0.173,0.18-0.493,0.18-0.962c0-0.334-0.067-0.568-0.201-0.702
		c-0.134-0.16-0.361-0.241-0.682-0.241c-0.334,0-0.548,0.074-0.642,0.222c-0.107,0.16-0.161,0.455-0.161,0.882
		c0,0.455,0.033,0.775,0.1,0.963C39.185,17.773,39.419,17.86,39.793,17.86z M40.776,10.541h0.782c0.147,0,0.28,0.006,0.401,0.02
		c0.214-0.828,0.354-1.55,0.421-2.165c-0.695-0.013-1.324-0.034-1.885-0.061C40.589,9.044,40.683,9.779,40.776,10.541z"/>
	<path fill="#DF6320" d="M55.627,3.262c0.601,0,0.922,0.348,0.962,1.043c0.16,1.149,0.287,2.279,0.381,3.389
		c0.2,0.027,0.374,0.06,0.521,0.1c0.962-2.059,1.684-3.462,2.166-4.211c0.361-0.334,0.755-0.501,1.184-0.501
		c0.654,0,1.008,0.381,1.061,1.143c0,0.308-0.1,0.635-0.3,0.983c0.922-0.174,1.891-0.294,2.907-0.361h0.803
		c1.216,0,2.078,0.395,2.587,1.184c0.708,0.668,1.068,2.594,1.082,5.775v0.642c-0.026,2.567-0.541,5.281-1.545,8.141
		c-0.188,0.589-0.587,0.883-1.202,0.883c-0.763,0-1.144-0.348-1.144-1.043c1.043-2.994,1.564-5.688,1.564-8.081
		c0-2.447-0.161-4.003-0.48-4.672c-0.362-0.388-0.79-0.582-1.284-0.582c-1.552,0.054-3.142,0.334-4.772,0.842
		c-0.655,1.271-1.156,2.36-1.503,3.269l-1.424-1.023c0.053,0.856,0.1,1.705,0.14,2.547h0.141c0.494,0.013,0.855,0.114,1.083,0.301
		c0.963-1.39,1.938-2.613,2.927-3.669c0.415-0.334,0.815-0.501,1.203-0.501c0.574,0.067,0.902,0.388,0.982,0.962
		c-0.027,0.361-0.193,0.742-0.501,1.143c-1.109,1.311-2.251,2.728-3.428,4.252l-1.022-0.863c-0.161,0.281-0.461,0.481-0.902,0.603
		c-0.134,0.039-0.261,0.08-0.381,0.119c0.026,0.937,0.04,1.858,0.04,2.768c-0.04,2.353-1.003,3.563-2.888,3.63
		c-1.016,0-1.918-0.247-2.708-0.742l-0.08-2.064c0.789,0.36,1.558,0.541,2.306,0.541c0.762,0,1.143-0.749,1.143-2.246
		c0-0.241-0.014-0.608-0.04-1.104c-1.377,0.481-2.727,0.983-4.051,1.504l-0.662-2.325c1.871-0.775,3.402-1.357,4.592-1.745
		c-0.08-0.949-0.161-2.065-0.24-3.349c-0.655,0.027-1.19,0.074-1.604,0.141c-0.121,0.922-0.234,1.905-0.341,2.948l-2.246-0.481
		c0.521-4.145,0.875-6.444,1.063-6.898c0.294-0.415,0.642-0.622,1.043-0.622c0.695,0.027,1.063,0.375,1.103,1.043
		c-0.014,0.308-0.074,0.735-0.181,1.283c-0.027,0.16-0.054,0.314-0.081,0.461c0.308-0.026,0.668-0.053,1.083-0.08
		c-0.081-1.042-0.161-2.159-0.241-3.349C54.444,3.649,54.838,3.275,55.627,3.262z M64.37,12.727
		c0.574,0.054,0.901,0.375,0.981,0.963c-0.026,0.348-0.188,0.715-0.481,1.103c-1.417,1.765-2.887,3.67-4.41,5.715l-1.685-1.463
		c1.457-2.247,2.92-4.198,4.391-5.856C63.58,12.881,63.981,12.727,64.37,12.727z"/>
	<path fill="#DF6320" d="M79.481,3.342c0.534,0.054,0.835,0.348,0.901,0.882c-0.026,0.321-0.167,0.668-0.42,1.043
		c-0.429,0.588-0.85,1.183-1.264,1.785c0.374,0.562,0.694,1.176,0.962,1.845c0.534,1.458,0.803,3.082,0.803,4.873
		c0,2.112-0.228,3.756-0.682,4.933c-0.615,1.457-1.457,2.186-2.527,2.186c-0.855,0-1.558-0.374-2.105-1.122
		c-0.535-0.629-0.802-1.504-0.802-2.627c0-1.297,0.428-2.427,1.283-3.39c0.789-0.855,1.624-1.283,2.507-1.283
		c0.08,0,0.16,0.007,0.24,0.02c-0.12-1.283-0.388-2.413-0.802-3.389c-0.041-0.107-0.08-0.201-0.12-0.281
		c-0.629,0.922-1.257,1.845-1.885,2.767l-1.625-1.263c0.695-1.163,1.384-2.259,2.065-3.289c-0.294-0.214-0.608-0.408-0.942-0.582
		c-0.562-0.107-0.855-0.428-0.883-0.962c0.041-0.562,0.422-0.855,1.144-0.883c0.468,0,1.009,0.221,1.624,0.662
		c0.066,0.053,0.134,0.1,0.2,0.141c0.401-0.562,0.803-1.097,1.204-1.604C78.745,3.496,79.12,3.342,79.481,3.342z M78.138,14.491
		c-0.441,0-0.85,0.295-1.224,0.882c-0.36,0.535-0.542,1.097-0.542,1.685c0,1.23,0.268,1.846,0.803,1.846
		c0.388,0,0.695-0.441,0.922-1.324c0.201-0.682,0.314-1.697,0.342-3.048C78.305,14.505,78.204,14.491,78.138,14.491z M82.469,14.15
		c0.589,0,0.882,0.24,0.882,0.722c0,0.067-0.013,0.147-0.039,0.241c0.026,0.013,0.06,0.021,0.101,0.021
		c0.693,0.08,1.095,0.134,1.202,0.159c0.374,0.08,0.562,0.288,0.562,0.622c-0.04,0.415-0.28,0.629-0.722,0.642
		c-0.215,0-0.748-0.046-1.604-0.141c-0.08,0.268-0.14,0.502-0.181,0.702c0.134,0.014,0.274,0.026,0.422,0.04
		c0.654,0.067,1.029,0.114,1.122,0.141c0.389,0.08,0.582,0.294,0.582,0.642c-0.04,0.401-0.28,0.607-0.722,0.622
		c-0.228,0-0.742-0.054-1.544-0.161c0.013,0.375,0.06,0.628,0.14,0.762c0.121,0.255,0.321,0.381,0.602,0.381
		c0.535,0,1.097-0.167,1.685-0.5v1.543c-0.615,0.309-1.149,0.462-1.604,0.462H83.05c-0.628,0-1.148-0.188-1.563-0.563
		c-0.429-0.44-0.642-1.109-0.642-2.004c0.014-1.204,0.281-2.433,0.802-3.69C81.78,14.391,82.054,14.178,82.469,14.15z M83.412,2.921
		c0.562,0.027,0.854,0.268,0.881,0.722c0,0.241-0.072,0.434-0.22,0.581c-0.589,0.762-0.883,1.237-0.883,1.424
		c0,0.293,0.448,0.882,1.344,1.765l-0.441,0.461c0.775-0.161,1.511-0.268,2.206-0.321c-0.896-0.762-1.344-1.451-1.344-2.065
		c0-0.441,0.395-1.156,1.184-2.146c0.227-0.254,0.521-0.394,0.883-0.421c0.614,0.04,0.935,0.281,0.962,0.722
		c0,0.147-0.073,0.328-0.221,0.541c-0.548,0.762-0.821,1.197-0.821,1.304c0,0.32,0.407,0.809,1.223,1.463l-0.702,0.562h0.441
		c0.976,0,1.664,0.061,2.065,0.181c-1.042-0.815-1.564-1.578-1.564-2.286c0-0.401,0.448-1.063,1.344-1.986
		c0.241-0.321,0.508-0.488,0.803-0.501c0.562,0.027,0.855,0.294,0.882,0.802c0,0.307-0.374,0.869-1.123,1.685
		c0,0.375,0.461,0.889,1.384,1.543l-1.042,0.963c0.427,0.201,0.755,0.475,0.981,0.822c0.348,0.428,0.521,1.203,0.521,2.326v0.281
		c0,0.749-0.241,1.383-0.722,1.905c-0.602,0.722-1.959,1.083-4.071,1.083H87.04c0.268,0.107,0.401,0.313,0.401,0.622v0.08
		c0.054,0,0.114,0.007,0.181,0.021c0.628,0.08,0.99,0.134,1.083,0.16c0.388,0.079,0.582,0.287,0.582,0.621
		c-0.041,0.414-0.288,0.629-0.742,0.642c-0.2,0-0.688-0.046-1.464-0.141c-0.067,0.281-0.113,0.528-0.14,0.742
		c0.133,0.014,0.286,0.027,0.461,0.04c0.574,0.054,0.909,0.088,1.002,0.101c0.374,0.08,0.562,0.294,0.562,0.642
		c-0.054,0.401-0.294,0.607-0.722,0.622c-0.2,0-0.655-0.034-1.364-0.101c0.014,0.334,0.055,0.567,0.121,0.701
		c0.106,0.309,0.28,0.461,0.521,0.461c0.455,0,0.937-0.167,1.444-0.5v1.543c-0.535,0.309-0.989,0.462-1.363,0.462h-0.28
		c-0.615,0-1.124-0.215-1.524-0.643c-0.415-0.494-0.622-1.243-0.622-2.245c0.014-1.069,0.207-2.165,0.582-3.289
		c0.08-0.281,0.233-0.461,0.461-0.541h-0.321c-1.363,0-2.485-0.153-3.368-0.461c-1.07-0.415-1.604-1.117-1.604-2.106v-0.241
		c0-0.963,0.167-1.925,0.501-2.888c0.188-0.494,0.509-0.762,0.963-0.802c-0.335-0.388-0.642-0.782-0.923-1.183
		c-0.2-0.334-0.301-0.608-0.301-0.822c0-0.187,0.067-0.401,0.201-0.642c0.254-0.521,0.642-1.136,1.163-1.845
		C82.782,3.074,83.077,2.934,83.412,2.921z M84.534,12.526l-0.622-0.762c0.603-0.655,1.204-1.283,1.805-1.885
		c0.281-0.294,0.535-0.508,0.763-0.642c-1.203,0.08-2.306,0.268-3.309,0.562c-0.147,0.575-0.221,1.07-0.221,1.484
		c0,0.535,0.254,0.889,0.762,1.063C83.926,12.413,84.2,12.473,84.534,12.526z M88.625,12.526c-0.882-0.467-1.672-0.902-2.366-1.303
		c-0.441,0.428-0.902,0.869-1.384,1.324c0.562,0.067,1.25,0.1,2.066,0.1C87.596,12.646,88.157,12.606,88.625,12.526z M87.743,9.197
		h-0.321c0.107,0.12,0.167,0.274,0.181,0.461c0,0.214-0.1,0.409-0.301,0.582c0.534,0.241,1.27,0.662,2.206,1.263l-0.422,0.962
		c0.281-0.08,0.528-0.22,0.742-0.421c0.2-0.147,0.314-0.454,0.342-0.922c0-0.882-0.201-1.444-0.603-1.685
		C89.326,9.277,88.719,9.197,87.743,9.197z M90.971,14.15c0.562,0.04,0.855,0.308,0.883,0.803c0,0.053-0.033,0.173-0.101,0.36
		c-0.468,1.498-0.702,2.641-0.702,3.43c0,0.453,0.054,0.768,0.161,0.942c0.106,0.16,0.267,0.24,0.481,0.24
		c0.348-0.106,0.614-0.261,0.802-0.462v1.344c-0.628,0.428-1.009,0.648-1.143,0.662c-0.669,0-1.164-0.174-1.484-0.521
		c-0.347-0.362-0.521-0.97-0.521-1.825c0-0.669,0.067-1.337,0.201-2.006c0.188-0.922,0.394-1.697,0.622-2.326
		C90.289,14.404,90.557,14.19,90.971,14.15z"/>
	<path fill="#DF6320" d="M108.068,3.162c0.668,0.04,1.049,0.394,1.144,1.063c0,0.188-0.061,0.428-0.181,0.722
		c-1.271,2.206-2.413,4.218-3.429,6.037c4.29,2.085,7.819,4.023,10.587,5.814l-1.223,2.407c-3.103-2.206-6.611-4.245-10.527-6.116
		c-1.805,3.315-3.136,5.915-3.991,7.8l-2.306-1.103c4.905-9.265,7.82-14.538,8.742-15.822
		C107.112,3.469,107.508,3.202,108.068,3.162z"/>
</g>
</svg>
