<?xml version="1.0" encoding="utf-8"?>
<!-- Generator: Adobe Illustrator 16.0.0, SVG Export Plug-In . SVG Version: 6.00 Build 0)  -->
<!DOCTYPE svg PUBLIC "-//W3C//DTD SVG 1.1//EN" "http://www.w3.org/Graphics/SVG/1.1/DTD/svg11.dtd">
<svg version="1.1" id="圖層_1" xmlns="http://www.w3.org/2000/svg" xmlns:xlink="http://www.w3.org/1999/xlink" x="0px" y="0px"
	 width="240px" height="48px" viewBox="0 0 240 48" enable-background="new 0 0 240 48" xml:space="preserve">
<g>
	<path fill="#262E3A" d="M41.587,34.109c-0.571,1.006-1.246,1.951-2.014,2.82l0.021,0.021l-0.711,0.715
		c-3.174,3.193-7.401,4.953-11.901,4.953c-4.483,0-8.698-1.746-11.868-4.916c-3.169-3.169-4.916-7.384-4.916-11.867
		c0-0.33,0.01-0.666,0.031-1c0.002-0.045,0.006-0.092,0.008-0.14l0.001-0.013c0.002-0.03,0.003-0.061,0.006-0.092l0.001-0.015
		c0.005-0.068,0.011-0.139,0.017-0.209c0.004-0.056,0.01-0.117,0.016-0.177c0.008-0.09,0.018-0.181,0.028-0.271
		c0.006-0.052,0.012-0.11,0.021-0.167c0.008-0.074,0.019-0.158,0.03-0.24c0.007-0.047,0.013-0.091,0.02-0.136
		c0.01-0.077,0.023-0.16,0.037-0.244c0.007-0.045,0.015-0.094,0.024-0.143c0.006-0.041,0.013-0.083,0.021-0.125
		c0.01-0.053,0.02-0.115,0.031-0.173c0.01-0.053,0.021-0.111,0.032-0.169c0.014-0.065,0.027-0.13,0.042-0.196
		c0.096-0.458,0.213-0.918,0.349-1.366l0.004-0.012c0.017-0.059,0.035-0.119,0.055-0.177c0.016-0.05,0.031-0.102,0.048-0.153
		c0.095-0.292,0.201-0.588,0.313-0.875c0.015-0.04,0.031-0.082,0.048-0.124c0.017-0.044,0.035-0.09,0.054-0.137
		c0.022-0.054,0.047-0.116,0.074-0.177c0.019-0.046,0.042-0.099,0.063-0.15l0.011-0.022c0.031-0.07,0.061-0.14,0.093-0.209
		c0.023-0.052,0.046-0.103,0.07-0.154c0.424-0.913,0.937-1.795,1.524-2.624l0.095-0.132c0.067-0.092,0.133-0.182,0.2-0.27
		c0.032-0.042,0.065-0.088,0.1-0.13c0.074-0.095,0.147-0.189,0.222-0.282c0.043-0.053,0.088-0.109,0.133-0.163
		c0.04-0.05,0.086-0.104,0.132-0.159c0.044-0.053,0.09-0.107,0.137-0.159c0.052-0.06,0.104-0.121,0.157-0.18l-1.97-1.971
		c-3.269,3.6-5.065,8.249-5.065,13.135c0,5.227,2.035,10.139,5.73,13.835c3.696,3.696,8.608,5.731,13.836,5.731
		c5.242,0,10.167-2.047,13.865-5.763c1.056-1.061,1.986-2.235,2.771-3.5L41.587,34.109z"/>
	<path fill="#EC661B" d="M16.547,36.271c2.787,2.786,6.493,4.321,10.436,4.321c0.123,0,0.245-0.001,0.37-0.006
		c0.062,0,0.122-0.002,0.182-0.005h0.009c0.091-0.004,0.181-0.007,0.272-0.013c0.073-0.004,0.144-0.008,0.217-0.013
		c0.037-0.002,0.068-0.005,0.098-0.007l0.049-0.004c0.066-0.007,0.133-0.012,0.2-0.019c0.06-0.005,0.115-0.011,0.171-0.017
		c0.042-0.004,0.077-0.008,0.111-0.012l0.075-0.009c0.049-0.006,0.097-0.012,0.147-0.019c0.181-0.022,0.362-0.048,0.535-0.078
		c0.05-0.008,0.099-0.017,0.147-0.024l0.017-0.003c0.039-0.008,0.076-0.014,0.115-0.021l0.019-0.003
		c0.051-0.009,0.102-0.02,0.151-0.03c0.133-0.026,0.263-0.052,0.391-0.081c0.087-0.02,0.174-0.04,0.261-0.062l0.011-0.004
		c0.021-0.005,0.043-0.009,0.065-0.016c0.064-0.017,0.122-0.031,0.181-0.046c0.05-0.014,0.097-0.025,0.144-0.039
		c0.042-0.011,0.077-0.021,0.112-0.031c0.035-0.01,0.062-0.017,0.088-0.025l0.02-0.006c0.036-0.011,0.073-0.021,0.109-0.032
		c0.06-0.018,0.114-0.034,0.167-0.052c0.042-0.013,0.081-0.025,0.12-0.037c0.124-0.041,0.246-0.082,0.368-0.125
		c0.035-0.012,0.067-0.024,0.098-0.036l0.024-0.008c0.043-0.015,0.082-0.029,0.119-0.044c0.061-0.021,0.116-0.043,0.17-0.064
		c0.046-0.017,0.086-0.033,0.125-0.049c0.076-0.03,0.144-0.058,0.212-0.086l0.205-0.088c0.065-0.027,0.128-0.055,0.188-0.084
		c0.036-0.014,0.066-0.028,0.098-0.044l0.029-0.012c0.05-0.024,0.101-0.048,0.152-0.072c0.31-0.147,0.616-0.308,0.912-0.475
		c0.032-0.018,0.062-0.036,0.093-0.054c0.068-0.039,0.136-0.08,0.204-0.12l0.336-0.207c0.149-0.095,0.304-0.197,0.47-0.311
		c0.045-0.032,0.092-0.066,0.137-0.098l0.02-0.015c0.034-0.022,0.068-0.047,0.102-0.071l0.01-0.008
		c0.025-0.02,0.051-0.036,0.075-0.055l0.009-0.008c0.042-0.029,0.085-0.062,0.127-0.093c0.047-0.035,0.093-0.069,0.138-0.104
		c0.03-0.025,0.057-0.047,0.084-0.065l0.031-0.025c0.047-0.036,0.093-0.073,0.139-0.111c0.049-0.037,0.096-0.076,0.142-0.114
		l0.012-0.011c0.089-0.073,0.177-0.146,0.264-0.225c0.027-0.023,0.054-0.046,0.082-0.069l-1.974-1.974
		c-2.16,1.841-4.899,2.852-7.755,2.852c-6.602,0-11.973-5.372-11.973-11.974c0-3.216,1.259-6.236,3.543-8.501
		c1.073-1.063,2.357-1.925,3.743-2.517l-2.093-2.093c-1.333,0.692-2.552,1.581-3.624,2.646c-2.808,2.791-4.354,6.506-4.354,10.464
		C12.225,29.779,13.761,33.483,16.547,36.271z"/>
	<path fill="#EC661B" d="M43.724,22.164c0-5.226-2.035-10.139-5.73-13.834c-3.696-3.696-8.608-5.731-13.835-5.731
		c-5.243,0-10.168,2.046-13.866,5.764c-1.056,1.058-1.986,2.235-2.77,3.5l2.03,2.03c0.571-1.006,1.246-1.952,2.013-2.822
		l-0.021-0.021l0.711-0.714c3.174-3.194,7.401-4.952,11.902-4.952c4.482,0,8.698,1.746,11.867,4.915
		c3.17,3.169,4.917,7.384,4.917,11.866c0,0.332-0.01,0.668-0.031,1c-0.002,0.045-0.005,0.092-0.008,0.14
		c-0.002,0.033-0.006,0.068-0.007,0.103l-0.001,0.016c-0.005,0.07-0.01,0.14-0.017,0.208c-0.005,0.057-0.011,0.119-0.016,0.18
		c-0.009,0.087-0.019,0.179-0.028,0.27c-0.007,0.052-0.013,0.11-0.021,0.168c-0.008,0.074-0.02,0.157-0.031,0.24
		c-0.006,0.047-0.012,0.091-0.021,0.135c-0.009,0.077-0.022,0.16-0.037,0.244c-0.006,0.045-0.015,0.094-0.023,0.143
		c-0.006,0.042-0.014,0.083-0.021,0.125c-0.009,0.053-0.02,0.114-0.032,0.175c-0.01,0.052-0.021,0.109-0.033,0.167
		c-0.013,0.065-0.025,0.132-0.041,0.198c-0.096,0.458-0.213,0.918-0.35,1.364c-0.019,0.063-0.037,0.124-0.058,0.189
		c-0.015,0.051-0.031,0.1-0.048,0.152c-0.097,0.295-0.202,0.59-0.313,0.876c-0.015,0.039-0.032,0.081-0.048,0.122
		c-0.018,0.046-0.036,0.091-0.056,0.138c-0.021,0.056-0.048,0.117-0.073,0.178c-0.02,0.047-0.042,0.098-0.064,0.149l-0.009,0.022
		c-0.032,0.07-0.062,0.141-0.094,0.208c-0.023,0.052-0.046,0.105-0.071,0.154c-0.423,0.913-0.936,1.797-1.523,2.623l-0.094,0.132
		c-0.068,0.093-0.134,0.184-0.201,0.271c-0.033,0.042-0.065,0.087-0.1,0.13c-0.074,0.096-0.147,0.19-0.222,0.283
		c-0.044,0.052-0.088,0.107-0.133,0.161c-0.039,0.049-0.081,0.099-0.124,0.15l-0.008,0.008c-0.046,0.053-0.092,0.108-0.139,0.16
		c-0.051,0.062-0.104,0.12-0.157,0.181l1.97,1.972C41.928,31.7,43.724,27.051,43.724,22.164z"/>
	<path fill="#262E3A" d="M28.843,33.183l2.094,2.094c1.333-0.692,2.552-1.582,3.624-2.646c2.808-2.79,4.354-6.509,4.354-10.466
		c0-3.941-1.536-7.647-4.323-10.433c-2.787-2.787-6.492-4.322-10.435-4.322c-0.123,0-0.247,0.002-0.37,0.005
		c-0.062,0.001-0.123,0.002-0.182,0.005h-0.01c-0.091,0.004-0.181,0.008-0.272,0.014c-0.073,0.004-0.144,0.008-0.216,0.012
		c-0.038,0.002-0.069,0.005-0.1,0.008l-0.05,0.004c-0.065,0.004-0.132,0.011-0.199,0.017c-0.06,0.006-0.116,0.011-0.172,0.017
		c-0.041,0.005-0.076,0.008-0.112,0.013l-0.058,0.006c-0.007,0-0.013,0.002-0.019,0.003c-0.048,0.006-0.095,0.011-0.144,0.017
		c-0.182,0.023-0.362,0.05-0.536,0.08c-0.05,0.007-0.098,0.015-0.146,0.024l-0.017,0.003c-0.039,0.006-0.074,0.013-0.111,0.02
		L21.422,7.66c-0.049,0.009-0.098,0.018-0.146,0.028c-0.138,0.026-0.267,0.053-0.396,0.083c-0.087,0.019-0.173,0.04-0.26,0.061
		l-0.011,0.003c-0.022,0.004-0.043,0.01-0.065,0.016c-0.064,0.016-0.122,0.032-0.181,0.046c-0.049,0.014-0.096,0.026-0.143,0.04
		c-0.042,0.01-0.077,0.021-0.113,0.031c-0.035,0.01-0.06,0.018-0.087,0.025L20,8c-0.036,0.009-0.073,0.02-0.109,0.032
		c-0.061,0.017-0.114,0.035-0.167,0.051c-0.042,0.014-0.081,0.025-0.12,0.037c-0.124,0.041-0.247,0.082-0.368,0.125
		c-0.034,0.012-0.064,0.023-0.095,0.034l-0.028,0.01c-0.042,0.015-0.078,0.028-0.115,0.042c-0.064,0.023-0.119,0.044-0.173,0.065
		c-0.045,0.018-0.084,0.034-0.125,0.05c-0.077,0.029-0.144,0.058-0.213,0.085l-0.205,0.088c-0.065,0.027-0.126,0.054-0.188,0.083
		c-0.035,0.017-0.066,0.03-0.097,0.044l-0.03,0.014c-0.049,0.023-0.101,0.048-0.151,0.072c-0.31,0.148-0.617,0.308-0.912,0.475
		c-0.034,0.018-0.063,0.036-0.093,0.054c-0.065,0.037-0.129,0.075-0.193,0.113l-0.212,0.129c-0.043,0.027-0.09,0.057-0.136,0.085
		c-0.151,0.094-0.304,0.196-0.469,0.31c-0.042,0.03-0.085,0.06-0.126,0.089l-0.026,0.019c-0.039,0.027-0.073,0.051-0.108,0.076
		l-0.014,0.01c-0.023,0.018-0.046,0.035-0.07,0.051l-0.008,0.007c-0.043,0.032-0.085,0.062-0.127,0.093
		c-0.047,0.036-0.092,0.071-0.137,0.104c-0.032,0.024-0.058,0.045-0.084,0.065l-0.033,0.025c-0.046,0.037-0.093,0.072-0.14,0.111
		c-0.052,0.041-0.102,0.083-0.152,0.125c-0.09,0.073-0.177,0.148-0.266,0.224c-0.027,0.023-0.053,0.047-0.081,0.07l1.974,1.974
		c2.161-1.841,4.9-2.851,7.756-2.851c6.601,0,11.972,5.371,11.972,11.972c0,3.218-1.259,6.236-3.543,8.502
		C31.514,31.729,30.23,32.591,28.843,33.183z"/>
	<g>
		<g>
			<linearGradient id="SVGID_1_" gradientUnits="userSpaceOnUse" x1="19.5591" y1="24.1763" x2="32.3901" y2="24.1763">
				<stop  offset="0" style="stop-color:#F5A322"/>
				<stop  offset="0.1117" style="stop-color:#E7892E"/>
				<stop  offset="0.2438" style="stop-color:#DA7034"/>
				<stop  offset="0.3868" style="stop-color:#D05C37"/>
				<stop  offset="0.5439" style="stop-color:#C94E38"/>
				<stop  offset="0.7258" style="stop-color:#C64639"/>
				<stop  offset="0.9904" style="stop-color:#C44339"/>
			</linearGradient>
			<path fill="url(#SVGID_1_)" d="M21.292,15.407l0.275-0.037c0.557-0.135,1.128,0.005,1.716,0.422
				c0.208,0.8,0.237,1.713,0.086,2.737l-0.018,0.919l0.051,0.38l-0.103,0.278c0.038,0.28,0.041,0.629,0.01,1.046
				c0.023,0.385-0.012,0.824-0.104,1.318l0.069,0.52l1.423,0.329l1.005,0.263l0.413-0.055l0.292,0.093l0.969-0.008l0.96,0.004
				c0.302-1.505,0.262-3.2-0.119-5.083l0.086-0.398l-0.103-0.771l-0.172-0.241l-0.481-0.455c0.481-2.208,1.699-2.765,3.656-1.669
				l0.344,2.57l0.051,0.379l0.069,0.52l0.051,0.381c0.037,0.279,0.038,0.629,0,1.048l0.052,0.39l0.051,0.38
				c0.037,0.28,0.037,0.63,0,1.049l0.052,0.391l-0.069,0.527c0.062,0.304,0.193,0.591,0.395,0.863l0.138,1.03l0.051,0.381
				l-0.352,1.481c-0.148,0.447-0.217,0.982-0.206,1.605l-0.087,0.397l-0.212,0.426l-0.087,0.398l-0.068,0.539l-0.087,0.398
				l-0.223,0.428c-0.102,0.263-0.19,0.624-0.266,1.083l-0.919,1.426c-0.68-1.057-1.083-2.353-1.21-3.89
				c-0.12-0.575-0.392-1.237-0.815-1.987l-0.051-0.38c-0.916,0.026-2.132-0.072-3.649-0.297l-0.282-0.095l-0.43-0.075l-0.282-0.094
				l-0.086,2.495l-0.068,0.539l-0.104,0.267l0.052,0.391l-0.994,2.882l-0.087,0.398c-0.252,0.21-0.594,0.429-1.022,0.655
				l-0.419-1.114l-0.223-0.622c-0.011-0.134-0.074-0.257-0.19-0.371l-0.464-2.422c0.162-0.781,0.255-1.798,0.282-3.051l0.019-0.908
				c-0.046-0.449-0.018-0.934,0.085-1.457c-0.086-0.328-0.086-0.677,0-1.047l-0.051-0.381c0.058-0.421,0.078-0.946,0.059-1.576
				c0.053-0.245,0.053-0.594,0-1.048l0.138-1.067l-0.051-0.381c0.087-0.472,0.105-1.041,0.052-1.706
				C20.523,16.432,20.923,15.985,21.292,15.407z"/>
		</g>
		<g>
			<path fill="none" stroke="#28265C" stroke-width="4" stroke-miterlimit="10" d="M21.292,15.407l0.275-0.037
				c0.557-0.135,1.128,0.005,1.716,0.422c0.208,0.8,0.237,1.713,0.086,2.737l-0.018,0.919l0.051,0.38l-0.103,0.278
				c0.038,0.28,0.041,0.629,0.01,1.046c0.023,0.385-0.012,0.824-0.104,1.318l0.069,0.52l1.423,0.329l1.005,0.263l0.413-0.055
				l0.292,0.093l0.969-0.008l0.96,0.004c0.302-1.505,0.262-3.2-0.119-5.083l0.086-0.398l-0.103-0.771l-0.172-0.241l-0.481-0.455
				c0.481-2.208,1.699-2.765,3.656-1.669l0.344,2.57l0.051,0.379l0.069,0.52l0.051,0.381c0.037,0.279,0.038,0.629,0,1.048
				l0.052,0.39l0.051,0.38c0.037,0.28,0.037,0.63,0,1.049l0.052,0.391l-0.069,0.527c0.062,0.304,0.193,0.591,0.395,0.863l0.138,1.03
				l0.051,0.381l-0.352,1.481c-0.148,0.447-0.217,0.982-0.206,1.605l-0.087,0.397l-0.212,0.426l-0.087,0.398l-0.068,0.539
				l-0.087,0.398l-0.223,0.428c-0.102,0.263-0.19,0.624-0.266,1.083l-0.919,1.426c-0.68-1.057-1.083-2.353-1.21-3.89
				c-0.12-0.575-0.392-1.237-0.815-1.987l-0.051-0.38c-0.916,0.026-2.132-0.072-3.649-0.297l-0.282-0.095l-0.43-0.075l-0.282-0.094
				l-0.086,2.495l-0.068,0.539l-0.104,0.267l0.052,0.391l-0.994,2.882l-0.087,0.398c-0.252,0.21-0.594,0.429-1.022,0.655
				l-0.419-1.114l-0.223-0.622c-0.011-0.134-0.074-0.257-0.19-0.371l-0.464-2.422c0.162-0.781,0.255-1.798,0.282-3.051l0.019-0.908
				c-0.046-0.449-0.018-0.934,0.085-1.457c-0.086-0.328-0.086-0.677,0-1.047l-0.051-0.381c0.058-0.421,0.078-0.946,0.059-1.576
				c0.053-0.245,0.053-0.594,0-1.048l0.138-1.067l-0.051-0.381c0.087-0.472,0.105-1.041,0.052-1.706
				C20.523,16.432,20.923,15.985,21.292,15.407z"/>
		</g>
	</g>
	<g>
		<g>
			<linearGradient id="SVGID_2_" gradientUnits="userSpaceOnUse" x1="19.5591" y1="24.1753" x2="32.3901" y2="24.1753">
				<stop  offset="0" style="stop-color:#F4C21F"/>
				<stop  offset="0.079" style="stop-color:#F2AE1D"/>
				<stop  offset="0.192" style="stop-color:#F0941B"/>
				<stop  offset="0.3131" style="stop-color:#ED7C1A"/>
				<stop  offset="0.4428" style="stop-color:#EC6919"/>
				<stop  offset="0.5854" style="stop-color:#EA5B19"/>
				<stop  offset="0.7504" style="stop-color:#EA5219"/>
				<stop  offset="0.9904" style="stop-color:#EA5019"/>
			</linearGradient>
			<path fill="url(#SVGID_2_)" d="M21.292,15.407l0.275-0.037c0.557-0.135,1.128,0.005,1.716,0.422
				c0.208,0.8,0.237,1.713,0.086,2.737l-0.018,0.919l0.051,0.38l-0.103,0.278c0.038,0.28,0.041,0.629,0.01,1.046
				c0.023,0.385-0.012,0.824-0.104,1.318l0.069,0.52l1.423,0.329l1.005,0.263l0.413-0.055l0.292,0.093l0.969-0.008l0.96,0.004
				c0.302-1.505,0.262-3.2-0.119-5.083l0.086-0.398l-0.103-0.771l-0.172-0.241l-0.481-0.455c0.481-2.208,1.699-2.765,3.656-1.669
				l0.344,2.57l0.051,0.379l0.069,0.52l0.051,0.381c0.037,0.279,0.038,0.629,0,1.048l0.052,0.39l0.051,0.38
				c0.037,0.28,0.037,0.63,0,1.049l0.052,0.391l-0.069,0.527c0.062,0.304,0.193,0.591,0.395,0.863l0.138,1.03l0.051,0.381
				l-0.352,1.481c-0.148,0.447-0.217,0.982-0.206,1.605l-0.087,0.398l-0.212,0.426l-0.087,0.398l-0.068,0.539l-0.087,0.398
				l-0.223,0.428c-0.102,0.262-0.19,0.623-0.266,1.082l-0.919,1.426c-0.68-1.057-1.083-2.352-1.21-3.889
				c-0.12-0.576-0.392-1.238-0.815-1.988l-0.051-0.379c-0.916,0.025-2.132-0.072-3.649-0.297l-0.282-0.096l-0.43-0.074l-0.282-0.094
				l-0.086,2.494l-0.068,0.539l-0.104,0.268l0.052,0.391l-0.994,2.881l-0.087,0.398c-0.252,0.211-0.594,0.43-1.022,0.656
				l-0.419-1.115l-0.223-0.621c-0.011-0.135-0.074-0.258-0.19-0.371l-0.464-2.422c0.162-0.781,0.255-1.799,0.282-3.051l0.019-0.908
				c-0.046-0.45-0.018-0.934,0.085-1.457c-0.086-0.328-0.086-0.677,0-1.047l-0.051-0.381c0.058-0.421,0.078-0.946,0.059-1.576
				c0.053-0.245,0.053-0.594,0-1.048l0.138-1.067l-0.051-0.381c0.087-0.472,0.105-1.041,0.052-1.706
				C20.523,16.432,20.923,15.985,21.292,15.407z"/>
		</g>
		<g>
			<path fill="none" stroke="#FFFFFF" stroke-miterlimit="10" d="M21.292,15.407l0.275-0.037c0.557-0.135,1.128,0.005,1.716,0.422
				c0.208,0.8,0.237,1.713,0.086,2.737l-0.018,0.919l0.051,0.38l-0.103,0.278c0.038,0.28,0.041,0.629,0.01,1.046
				c0.023,0.385-0.012,0.824-0.104,1.318l0.069,0.52l1.423,0.329l1.005,0.263l0.413-0.055l0.292,0.093l0.969-0.008l0.96,0.004
				c0.302-1.505,0.262-3.2-0.119-5.083l0.086-0.398l-0.103-0.771l-0.172-0.241l-0.481-0.455c0.481-2.208,1.699-2.765,3.656-1.669
				l0.344,2.57l0.051,0.379l0.069,0.52l0.051,0.381c0.037,0.279,0.038,0.629,0,1.048l0.052,0.39l0.051,0.38
				c0.037,0.28,0.037,0.63,0,1.049l0.052,0.391l-0.069,0.527c0.062,0.304,0.193,0.591,0.395,0.863l0.138,1.03l0.051,0.381
				l-0.352,1.481c-0.148,0.447-0.217,0.982-0.206,1.605l-0.087,0.398l-0.212,0.426l-0.087,0.398l-0.068,0.539l-0.087,0.398
				l-0.223,0.428c-0.102,0.262-0.19,0.623-0.266,1.082l-0.919,1.426c-0.68-1.057-1.083-2.352-1.21-3.889
				c-0.12-0.576-0.392-1.238-0.815-1.988l-0.051-0.379c-0.916,0.025-2.132-0.072-3.649-0.297l-0.282-0.096l-0.43-0.074l-0.282-0.094
				l-0.086,2.494l-0.068,0.539l-0.104,0.268l0.052,0.391l-0.994,2.881l-0.087,0.398c-0.252,0.211-0.594,0.43-1.022,0.656
				l-0.419-1.115l-0.223-0.621c-0.011-0.135-0.074-0.258-0.19-0.371l-0.464-2.422c0.162-0.781,0.255-1.799,0.282-3.051l0.019-0.908
				c-0.046-0.45-0.018-0.934,0.085-1.457c-0.086-0.328-0.086-0.677,0-1.047l-0.051-0.381c0.058-0.421,0.078-0.946,0.059-1.576
				c0.053-0.245,0.053-0.594,0-1.048l0.138-1.067l-0.051-0.381c0.087-0.472,0.105-1.041,0.052-1.706
				C20.523,16.432,20.923,15.985,21.292,15.407z"/>
		</g>
	</g>
</g>
<g>
	<path fill="#DF6320" d="M74.407,7.474c0.905,0,1.509,0.301,1.811,0.905c1.759-0.83,3.658-1.345,5.694-1.546h1.056
		c2.137,0,3.708,0.49,4.714,1.471c1.131,1.157,1.747,2.841,1.848,5.053v1.509c0,2.389-0.353,4.651-1.056,6.788
		c-0.051,0.126-0.101,0.214-0.151,0.264c0.478,0.327,0.93,0.742,1.358,1.245c1.408,1.886,2.112,4.074,2.112,6.562v1.434
		c-0.251,3.092-0.767,5.957-1.546,8.598c-0.377,0.805-1.119,1.207-2.225,1.207c-1.006,0-1.508-0.604-1.508-1.811
		c1.005-3.42,1.508-6.311,1.508-8.674c0-2.514-0.39-4.174-1.169-4.979c-0.805-0.779-1.974-1.168-3.507-1.168
		c-2.892,0.051-5.708,0.516-8.448,1.395c0.05,1.459,0.101,3.471,0.151,6.035c0,4.072,0.151,7.139,0.453,9.201h-3.809
		c-0.277-1.434-0.428-4.5-0.452-9.201v-1.02c0-1.559-0.025-3.092-0.076-4.6c-0.277,0.527-0.805,0.828-1.584,0.904h-2.791
		c-0.051,0.855-0.088,1.711-0.113,2.564l0.038-0.037c1.005-0.756,1.823-1.133,2.452-1.133c1.03,0.051,1.583,0.643,1.659,1.773
		c0,0.729-0.415,1.332-1.245,1.811c-0.956,0.729-1.986,1.496-3.092,2.301c0,0.604-0.013,1.205-0.038,1.809c0.553,0,1.093,0,1.622,0
		c1.835,0.051,2.791,0.654,2.866,1.811c-0.051,1.182-0.692,1.822-1.923,1.924c-3.721,0.025-6.538,0.051-8.448,0.076
		c-1.157,0.049-2.276,0.074-3.356,0.074v-3.732c0.729-0.025,1.584-0.051,2.564-0.076c-0.654-0.754-1.245-1.533-1.772-2.338
		c-0.629-1.105-0.943-2.012-0.943-2.715c0.05-1.156,0.716-1.773,1.999-1.848c0.805,0.074,1.936,1.307,3.395,3.695
		c0.05-1.836,0.113-3.809,0.188-5.922c-2.54,0.025-4.237,0.064-5.091,0.113v-3.733c0.98-0.051,2.728-0.088,5.242-0.113
		c0.05-0.955,0.1-1.923,0.151-2.904c0.05-0.251,0.1-0.465,0.151-0.641c-0.805-0.125-1.546-0.239-2.225-0.339
		c-0.528,0.83-1.031,1.659-1.509,2.489l-3.168-2.602c2.438-4.45,4.89-8.322,7.354-11.616c0.704-0.604,1.42-0.905,2.15-0.905
		c1.081,0.126,1.684,0.742,1.81,1.848c0,0.126-0.025,0.239-0.075,0.339c1.131,0.553,2.715,1.546,4.751,2.979l-1.961,3.62
		c-1.81-1.207-3.407-2.287-4.79-3.243c-0.754,1.157-1.496,2.288-2.225,3.394c2.238,0.126,4.224,0.365,5.959,0.717
		c1.131,0.302,1.722,0.918,1.772,1.848c-0.025,1.132-0.717,1.735-2.074,1.811c-0.629-0.025-1.195-0.038-1.697-0.038
		c0.025,0.101,0.038,0.214,0.038,0.339c-0.025,0.478-0.075,1.433-0.151,2.867h1.32c1.458,0,2.363,0.314,2.715,0.942v-0.49
		c0.201-1.358,0.854-2.062,1.961-2.112c0.502,0.025,0.88,0.151,1.131,0.377c-0.729-7.04-1.157-11.289-1.282-12.747
		C72.948,8.103,73.451,7.499,74.407,7.474z M81.195,26.633c1.307,0,2.388,0.377,3.243,1.131c0.83,0.779,1.257,2.012,1.282,3.695
		v0.717c0,1.811-0.327,3.219-0.98,4.225c-0.729,1.029-1.647,1.545-2.753,1.545h-1.019c-1.559,0-2.753-0.578-3.583-1.734
		c-0.579-0.854-0.867-2.15-0.867-3.885v-0.754c0-1.76,0.389-3.066,1.169-3.922c0.604-0.578,1.546-0.918,2.829-1.018H81.195z
		 M77.763,21.39c0.654-0.151,1.282-0.264,1.886-0.34c-0.302-2.212-0.579-4.224-0.83-6.034c0.025-1.433,0.528-2.2,1.508-2.301
		c0.754,0,1.232,0.227,1.433,0.679c1.609,0.025,3.004,0.101,4.186,0.226c-0.15-1.207-0.516-2.074-1.093-2.602
		c-0.729-0.453-1.748-0.679-3.055-0.679c-1.735,0.051-3.407,0.528-5.016,1.433C77.109,14.866,77.437,18.071,77.763,21.39z
		 M81.044,34.477c0.704,0,1.144-0.264,1.32-0.793c0.226-0.326,0.339-0.93,0.339-1.809c0-0.629-0.126-1.068-0.377-1.32
		c-0.251-0.303-0.679-0.453-1.282-0.453c-0.629,0-1.031,0.139-1.207,0.414c-0.201,0.303-0.302,0.855-0.302,1.66
		c0,0.855,0.063,1.459,0.189,1.811C79.9,34.313,80.34,34.477,81.044,34.477z M82.892,20.711h1.471c0.276,0,0.528,0.013,0.754,0.038
		c0.402-1.559,0.666-2.917,0.792-4.073c-1.308-0.025-2.489-0.063-3.545-0.113C82.54,17.896,82.716,19.278,82.892,20.711z"/>
	<path fill="#DF6320" d="M110.822,7.021c1.131,0,1.735,0.654,1.811,1.961c0.302,2.163,0.54,4.287,0.716,6.374
		c0.377,0.051,0.704,0.113,0.98,0.188c1.811-3.872,3.168-6.511,4.073-7.919c0.679-0.628,1.42-0.943,2.225-0.943
		c1.231,0,1.898,0.716,1.999,2.149c0,0.579-0.188,1.194-0.565,1.848c1.734-0.327,3.558-0.553,5.468-0.679h1.509
		c2.288,0,3.909,0.742,4.865,2.225c1.332,1.258,2.011,4.878,2.036,10.862v1.206c-0.051,4.828-1.019,9.931-2.903,15.312
		c-0.353,1.105-1.107,1.658-2.263,1.658c-1.434,0-2.15-0.652-2.15-1.961c1.961-5.631,2.942-10.697,2.942-15.198
		c0-4.601-0.302-7.529-0.905-8.787c-0.679-0.729-1.484-1.094-2.414-1.094c-2.917,0.101-5.908,0.628-8.976,1.584
		c-1.232,2.389-2.175,4.438-2.829,6.147l-2.677-1.923c0.1,1.609,0.188,3.206,0.264,4.79h0.264c0.93,0.025,1.609,0.213,2.037,0.565
		c1.81-2.614,3.645-4.914,5.506-6.901c0.779-0.628,1.533-0.942,2.263-0.942c1.081,0.126,1.697,0.729,1.848,1.81
		c-0.05,0.679-0.364,1.396-0.942,2.149c-2.087,2.464-4.237,5.13-6.449,7.995l-1.923-1.621c-0.302,0.527-0.868,0.904-1.697,1.131
		c-0.251,0.076-0.49,0.15-0.716,0.227c0.05,1.76,0.075,3.494,0.075,5.205c-0.075,4.424-1.886,6.699-5.431,6.824
		c-1.911,0-3.608-0.465-5.091-1.395l-0.151-3.885c1.483,0.68,2.929,1.02,4.337,1.02c1.433,0,2.15-1.41,2.15-4.225
		c0-0.453-0.025-1.145-0.076-2.074c-2.59,0.904-5.129,1.848-7.618,2.828l-1.245-4.375c3.52-1.457,6.398-2.551,8.636-3.281
		c-0.151-1.784-0.302-3.884-0.453-6.297c-1.232,0.051-2.238,0.139-3.017,0.264c-0.226,1.735-0.44,3.583-0.641,5.543l-4.224-0.905
		c0.98-7.793,1.646-12.118,1.999-12.973c0.553-0.779,1.207-1.169,1.961-1.169c1.307,0.051,1.999,0.705,2.074,1.961
		c-0.025,0.579-0.139,1.383-0.34,2.414c-0.05,0.302-0.101,0.591-0.15,0.867c0.578-0.05,1.257-0.1,2.036-0.151
		c-0.151-1.961-0.302-4.06-0.453-6.298C108.597,7.751,109.338,7.047,110.822,7.021z M127.265,24.822
		c1.081,0.101,1.697,0.704,1.848,1.811c-0.051,0.652-0.352,1.344-0.904,2.074c-2.666,3.318-5.431,6.9-8.297,10.748l-3.168-2.754
		c2.74-4.225,5.493-7.895,8.259-11.012C125.781,25.111,126.535,24.822,127.265,24.822z"/>
	<path fill="#DF6320" d="M155.685,7.172c1.006,0.101,1.571,0.654,1.697,1.659c-0.051,0.604-0.314,1.257-0.792,1.961
		c-0.805,1.107-1.597,2.225-2.376,3.356c0.703,1.056,1.307,2.213,1.811,3.47c1.005,2.741,1.508,5.795,1.508,9.165
		c0,3.973-0.428,7.064-1.282,9.277c-1.156,2.74-2.74,4.109-4.751,4.109c-1.609,0-2.93-0.703-3.96-2.111
		c-1.006-1.182-1.509-2.828-1.509-4.939c0-2.439,0.805-4.564,2.413-6.373c1.483-1.609,3.056-2.415,4.715-2.415
		c0.15,0,0.302,0.013,0.452,0.038c-0.227-2.414-0.729-4.538-1.509-6.374c-0.075-0.201-0.15-0.377-0.226-0.528
		c-1.183,1.735-2.364,3.47-3.545,5.205l-3.055-2.376c1.307-2.188,2.602-4.249,3.884-6.185c-0.553-0.402-1.145-0.767-1.772-1.094
		c-1.056-0.201-1.609-0.804-1.659-1.81c0.075-1.056,0.792-1.609,2.149-1.659c0.88,0,1.898,0.415,3.055,1.244
		c0.126,0.101,0.251,0.188,0.377,0.264c0.755-1.056,1.509-2.061,2.263-3.017C154.302,7.461,155.006,7.172,155.685,7.172z
		 M153.158,28.141c-0.83,0-1.598,0.553-2.301,1.66c-0.679,1.006-1.019,2.061-1.019,3.166c0,2.314,0.503,3.471,1.509,3.471
		c0.729,0,1.307-0.83,1.734-2.488c0.378-1.283,0.591-3.193,0.642-5.732C153.472,28.166,153.283,28.141,153.158,28.141z
		 M161.304,27.5c1.106,0,1.659,0.451,1.659,1.357c0,0.125-0.025,0.277-0.075,0.453c0.05,0.023,0.113,0.037,0.188,0.037
		c1.308,0.15,2.062,0.252,2.263,0.301c0.704,0.152,1.057,0.541,1.057,1.17c-0.076,0.779-0.528,1.182-1.358,1.207
		c-0.402,0-1.408-0.088-3.017-0.264c-0.151,0.502-0.264,0.941-0.34,1.318c0.251,0.025,0.516,0.051,0.792,0.076
		c1.231,0.127,1.936,0.215,2.112,0.264c0.729,0.15,1.094,0.553,1.094,1.207c-0.075,0.754-0.528,1.145-1.357,1.17
		c-0.428,0-1.396-0.102-2.904-0.303c0.024,0.703,0.113,1.182,0.264,1.434c0.227,0.477,0.604,0.717,1.132,0.717
		c1.005,0,2.062-0.314,3.168-0.943v2.904c-1.157,0.578-2.163,0.867-3.018,0.867h-0.565c-1.182,0-2.162-0.352-2.941-1.057
		c-0.805-0.828-1.207-2.086-1.207-3.771c0.024-2.262,0.528-4.574,1.509-6.938C160.009,27.951,160.524,27.551,161.304,27.5z
		 M163.076,6.38c1.056,0.051,1.608,0.503,1.659,1.357c0,0.453-0.138,0.817-0.414,1.094c-1.107,1.433-1.66,2.326-1.66,2.678
		c0,0.553,0.843,1.659,2.527,3.319l-0.83,0.867c1.458-0.302,2.841-0.502,4.148-0.604c-1.685-1.433-2.526-2.728-2.526-3.884
		c0-0.83,0.741-2.174,2.225-4.035c0.428-0.478,0.98-0.741,1.659-0.792c1.156,0.075,1.76,0.528,1.811,1.357
		c0,0.277-0.139,0.617-0.415,1.019c-1.031,1.433-1.546,2.25-1.546,2.451c0,0.604,0.767,1.521,2.301,2.753l-1.32,1.056h0.83
		c1.835,0,3.13,0.113,3.884,0.339c-1.961-1.533-2.941-2.966-2.941-4.299c0-0.754,0.842-1.999,2.526-3.733
		c0.453-0.604,0.956-0.917,1.509-0.943c1.056,0.051,1.608,0.553,1.659,1.508c0,0.579-0.704,1.635-2.111,3.168
		c0,0.704,0.867,1.672,2.602,2.904l-1.961,1.81c0.805,0.377,1.42,0.893,1.849,1.546c0.653,0.805,0.98,2.263,0.98,4.375v0.528
		c0,1.409-0.453,2.602-1.358,3.583c-1.131,1.357-3.684,2.035-7.655,2.035h-0.604c0.503,0.203,0.754,0.592,0.754,1.17v0.15
		c0.101,0,0.214,0.014,0.34,0.039c1.182,0.15,1.86,0.25,2.036,0.301c0.729,0.15,1.094,0.541,1.094,1.17
		c-0.075,0.779-0.541,1.182-1.396,1.207c-0.377,0-1.295-0.088-2.753-0.266c-0.126,0.529-0.214,0.994-0.264,1.396
		c0.251,0.025,0.54,0.051,0.867,0.074c1.081,0.102,1.71,0.164,1.886,0.189c0.704,0.15,1.056,0.553,1.056,1.207
		c-0.101,0.754-0.553,1.143-1.357,1.168c-0.377,0-1.232-0.063-2.564-0.188c0.024,0.627,0.101,1.068,0.227,1.32
		c0.201,0.578,0.527,0.867,0.98,0.867c0.854,0,1.76-0.314,2.715-0.943v2.904c-1.006,0.578-1.86,0.867-2.564,0.867h-0.527
		c-1.157,0-2.112-0.402-2.866-1.207c-0.78-0.93-1.169-2.338-1.169-4.225c0.024-2.01,0.389-4.072,1.093-6.184
		c0.151-0.529,0.44-0.867,0.868-1.02h-0.604c-2.564,0-4.677-0.287-6.336-0.867c-2.012-0.777-3.017-2.098-3.017-3.959v-0.452
		c0-1.81,0.313-3.621,0.942-5.431c0.352-0.93,0.955-1.433,1.811-1.509c-0.629-0.729-1.207-1.471-1.735-2.225
		c-0.377-0.628-0.565-1.144-0.565-1.546c0-0.352,0.126-0.754,0.377-1.207c0.478-0.98,1.207-2.137,2.188-3.469
		C161.895,6.669,162.447,6.406,163.076,6.38z M165.188,24.445l-1.169-1.434c1.131-1.231,2.263-2.413,3.394-3.544
		c0.528-0.553,1.006-0.956,1.434-1.207c-2.263,0.151-4.337,0.503-6.223,1.056c-0.277,1.081-0.415,2.012-0.415,2.791
		c0,1.006,0.478,1.672,1.433,1.999C164.044,24.231,164.56,24.344,165.188,24.445z M172.882,24.445
		c-1.659-0.88-3.144-1.697-4.45-2.452c-0.83,0.805-1.697,1.635-2.603,2.489c1.057,0.127,2.351,0.189,3.885,0.189
		C170.945,24.671,172.001,24.595,172.882,24.445z M171.223,18.185h-0.604c0.201,0.226,0.313,0.515,0.339,0.867
		c0,0.402-0.188,0.767-0.565,1.094c1.005,0.453,2.389,1.245,4.148,2.376l-0.792,1.81c0.528-0.151,0.993-0.415,1.396-0.792
		c0.377-0.276,0.591-0.854,0.641-1.735c0-1.659-0.377-2.715-1.131-3.168C174.201,18.335,173.058,18.185,171.223,18.185z
		 M177.294,27.5c1.056,0.074,1.608,0.578,1.659,1.508c0,0.102-0.063,0.326-0.188,0.68c-0.88,2.814-1.319,4.965-1.319,6.447
		c0,0.855,0.1,1.447,0.302,1.773c0.2,0.301,0.502,0.453,0.904,0.453c0.654-0.203,1.156-0.49,1.509-0.867v2.525
		c-1.182,0.805-1.898,1.219-2.149,1.244c-1.258,0-2.188-0.326-2.791-0.98c-0.654-0.678-0.98-1.822-0.98-3.432
		c0-1.258,0.126-2.514,0.377-3.771c0.352-1.734,0.741-3.191,1.169-4.373C176.012,27.977,176.515,27.574,177.294,27.5z"/>
	<path fill="#DF6320" d="M209.448,6.833c1.257,0.075,1.974,0.742,2.15,1.999c0,0.353-0.113,0.805-0.34,1.358
		c-2.389,4.148-4.538,7.933-6.449,11.351c8.071,3.922,14.708,7.569,19.913,10.936l-2.301,4.527
		c-5.833-4.148-12.433-7.982-19.8-11.504c-3.394,6.236-5.896,11.125-7.504,14.67l-4.338-2.074
		c9.228-17.422,14.708-27.341,16.443-29.754C207.65,7.412,208.393,6.908,209.448,6.833z"/>
</g>
</svg>
